<svg width="489" height="320" viewBox="0 0 489 320" fill="none" xmlns="http://www.w3.org/2000/svg">
<path d="M169.098 165.694C163.796 167.082 159.063 167.776 154.897 167.776C150.858 167.776 147.26 167.524 144.104 167.019C140.949 166.514 137.54 165.504 133.88 163.989C130.345 162.601 127 160.96 123.844 159.066C120.689 157.173 117.533 154.838 114.377 152.061C108.57 147.39 103.269 142.341 98.472 136.913C93.8015 131.485 84.7129 121.324 71.2062 106.428C57.6995 91.4069 48.7372 81.4346 44.3191 76.5116C39.901 71.5887 36.4928 69.0009 34.0944 68.7485V66.855C41.4158 66.855 46.2757 66.7288 48.674 66.4763C51.1987 66.0976 53.8495 65.5296 56.6266 64.7722C59.4036 63.8886 61.7389 62.7525 63.6324 61.364C71.08 56.5672 74.8038 48.6147 74.8038 37.5064C74.8038 28.2916 72.721 20.9071 68.5554 15.3529C64.516 9.79879 58.7725 6.9586 51.3249 6.83237H27.846V119.683C27.846 122.838 28.9821 125.615 31.2542 128.014C33.6526 130.412 36.5559 131.611 39.9641 131.611H42.2363L42.4256 133.505H0.958884V131.611H3.42038C6.57615 131.611 9.35322 130.475 11.7516 128.203C14.15 125.931 15.4123 123.154 15.5385 119.872V14.7849C15.4123 11.5029 14.15 8.72582 11.7516 6.45368C9.47945 4.05529 6.70238 2.8561 3.42038 2.8561H0.958884V0.962642H52.0823C63.1906 0.962642 72.0898 4.11841 78.78 10.4299C85.5965 16.6152 89.0047 24.8833 89.0047 35.2342C89.0047 45.4589 85.9121 54.2951 79.7268 61.7427C73.5415 69.064 65.9676 72.7247 57.0053 72.7247C57.0053 72.7247 56.9421 72.7247 56.8159 72.7247C61.1078 77.269 65.9676 82.5707 71.3955 88.6298C93.2334 112.74 107.245 127.887 113.43 134.073C119.616 140.258 125.044 145.307 129.714 149.22C134.511 153.26 138.74 156.226 142.4 158.12C149.848 162.159 157.232 164.179 164.554 164.179C166.068 164.179 167.583 164.053 169.098 163.8V165.694Z" fill="black"/>
<path d="M338.922 317.301C339.565 317.301 340.208 317.301 340.852 317.301V318.909C337.85 319.338 334.473 319.552 330.722 319.552C327.077 319.552 322.521 318.748 317.054 317.14C311.694 315.532 306.817 312.531 302.422 308.136C293.417 299.131 287.95 287.447 286.021 273.083L276.212 201.529L242.767 277.102C239.766 283.641 237.944 289.108 237.3 293.503H235.692L194.047 202.977L186.972 282.891C186.758 284.713 187.294 286.321 188.58 287.715C189.973 289.108 191.474 289.805 193.082 289.805H195.655V291.252H164.461V289.644H167.033C169.928 289.644 172.447 288.787 174.591 287.072C176.842 285.249 178.235 282.891 178.771 279.997L188.901 192.203C179.468 173.659 168.159 164.386 154.974 164.386C153.795 164.386 152.562 164.44 151.276 164.547V162.939C154.17 162.189 156.528 161.813 158.351 161.813C160.173 161.813 162.156 161.921 164.3 162.135C166.444 162.242 168.963 162.725 171.857 163.582C174.752 164.44 177.485 165.726 180.058 167.441C182.63 169.049 184.882 170.764 186.811 172.587C188.741 174.302 190.563 176.231 192.278 178.375C195.172 182.234 197.477 185.932 199.192 189.47L237.944 273.404L281.197 176.446H282.644L297.598 271.635C299.849 286.643 304.673 298.006 312.069 305.724C319.573 313.442 328.524 317.301 338.922 317.301Z" fill="black"/>
<rect x="34.9261" y="231.556" width="10.4019" height="62.4055" fill="black"/>
<rect x="74.022" y="184.767" width="6.78321" height="78.0069" rx="3.39161" transform="rotate(50 74.022 184.767)" fill="black"/>
<rect x="69.9804" y="190.619" width="6.78321" height="77.3286" rx="3.39161" transform="rotate(-50 69.9804 190.619)" fill="black"/>
<rect x="103.212" y="238.703" width="10.4019" height="62.4055" fill="black"/>
<rect x="69.0691" y="215.276" width="10.4019" height="62.4055" fill="black"/>
<path d="M161.834 22.2846C161.984 22.6292 162.288 23.6114 162.748 25.2311C162.954 25.9664 163.064 26.7475 163.075 27.5746H161.507C160.404 26.0123 159.267 24.8923 158.095 24.2145C156.923 23.5252 155.614 23.1806 154.166 23.1806C152.386 23.1806 150.95 23.8756 149.859 25.2656C148.377 27.1496 147.636 29.7745 147.636 33.1404C147.636 35.0933 147.762 36.4833 148.015 37.3104C148.428 38.6544 148.951 39.7515 149.583 40.6016C150.065 41.2449 150.697 41.7561 151.478 42.1352C152.489 42.6521 153.569 42.9106 154.718 42.9106C155.981 42.9106 157.199 42.52 158.371 41.7389C159.554 40.9462 160.686 39.7687 161.765 38.2064C162.19 38.126 162.748 38.0801 163.437 38.0686C163.391 38.5051 163.316 38.9589 163.213 39.4299C163.178 39.6137 163.046 40.3431 162.817 41.6183L162.661 42.1352L162.42 42.9451C161.719 43.485 160.732 43.8928 159.456 44.1685C158.193 44.4327 156.636 44.5648 154.787 44.5648C153.374 44.5648 152.035 44.4327 150.772 44.1685C149.52 43.9043 148.446 43.485 147.549 42.9106C146.24 42.0835 145.212 41.1875 144.465 40.2225C143.718 39.2575 143.161 38.2064 142.794 37.0692C142.438 35.9319 142.259 34.6567 142.259 33.2438C142.259 29.8205 143.385 26.9945 145.637 24.7659C147.9 22.5373 150.783 21.423 154.287 21.423C155.711 21.423 157.05 21.4977 158.302 21.647C159.566 21.7849 160.743 21.9974 161.834 22.2846ZM179.497 31.6757C180.232 32.3879 180.777 33.2093 181.134 34.1398C181.501 35.0588 181.685 35.9261 181.685 36.7418C181.685 38.2811 181.449 39.5218 180.979 40.4637C180.266 41.8882 179.307 42.9393 178.101 43.6171C176.895 44.2949 175.493 44.6338 173.896 44.6338C172.104 44.6338 170.582 44.2317 169.33 43.4276C168.089 42.6234 167.199 41.7102 166.659 40.6878C166.131 39.6654 165.867 38.396 165.867 36.8796C165.867 36.1099 165.993 35.3403 166.246 34.5706C166.498 33.7894 166.843 33.1117 167.28 32.5373C167.728 31.9629 168.216 31.4804 168.744 31.0898C169.514 30.5384 170.284 30.1479 171.053 29.9181C171.834 29.6769 172.776 29.5562 173.879 29.5562C176.28 29.5562 178.153 30.2627 179.497 31.6757ZM170.071 37.6378C170.174 39.0623 170.249 39.8836 170.295 40.1019C170.444 40.8716 170.68 41.5321 171.001 42.0835C171.22 42.4396 171.582 42.7555 172.087 43.0312C172.593 43.3069 173.196 43.4448 173.896 43.4448C174.735 43.4448 175.441 43.1806 176.016 42.6521C176.59 42.1122 177.004 41.2736 177.257 40.1363C177.417 39.3897 177.498 38.1662 177.498 36.466C177.498 34.3753 177.153 32.8991 176.464 32.0376C175.775 31.1645 174.867 30.728 173.741 30.728C172.857 30.728 172.122 30.975 171.536 31.4689C170.961 31.9629 170.559 32.6924 170.329 33.6573C170.18 34.2777 170.094 35.6045 170.071 37.6378ZM183.684 43.3586C183.983 43.2208 184.258 43.1289 184.511 43.0829C185.143 42.9795 185.51 42.8934 185.614 42.8245C185.786 42.7211 185.901 42.5947 185.958 42.4454C186.027 42.2156 186.062 41.7102 186.062 40.929V39.4299L186.079 38.2064L186.027 36.3971V35.3115C186.027 34.5878 185.97 33.9962 185.855 33.5367C185.809 33.3644 185.665 33.1921 185.424 33.0198C185.103 32.79 184.557 32.566 183.787 32.3477L183.77 31.5206C183.919 31.4747 184.051 31.446 184.166 31.4345C184.293 31.4115 184.758 31.2966 185.562 31.0898C186.194 30.8601 186.602 30.6993 186.786 30.6074C186.843 30.5729 186.935 30.5212 187.061 30.4523C187.199 30.3374 187.354 30.2225 187.526 30.1076C187.871 29.8664 188.285 29.4471 188.767 28.8498L189.68 28.7808L189.646 30.728C189.634 30.9233 189.629 31.0784 189.629 31.1932C189.629 31.2851 189.634 31.5493 189.646 31.9859C190.599 31.1588 191.467 30.5844 192.248 30.2627C193.27 29.8377 194.241 29.6252 195.16 29.6252C196.24 29.6252 197.188 29.8951 198.003 30.435C198.819 30.9635 199.353 31.5781 199.606 32.2788C199.858 32.9796 199.985 34.3925 199.985 36.5177L199.916 42.1352C199.916 42.3994 199.962 42.6177 200.054 42.79C200.169 42.8819 200.485 42.968 201.001 43.0485L201.846 43.2035C201.949 43.3529 202.001 43.5367 202.001 43.755C202.001 43.8928 201.995 44.0823 201.984 44.3236L198.606 44.0823L197.607 44.1168H196.814L194.54 44.2891H193.954C193.942 44.1398 193.937 44.0249 193.937 43.9445C193.937 43.7377 193.948 43.5137 193.971 43.2725C194.132 43.238 194.534 43.1806 195.177 43.1002C195.35 43.0772 195.539 43.037 195.746 42.9795C195.976 42.8876 196.108 42.7957 196.142 42.7038C196.234 42.5085 196.28 42.1352 196.28 41.5838C196.28 40.6188 196.269 39.8779 196.246 39.3609L196.263 37.3621C196.274 34.9382 196.125 33.4276 195.815 32.8302C195.378 31.9686 194.723 31.5379 193.85 31.5379C193.207 31.5379 192.541 31.7044 191.852 32.0376C191.162 32.3592 190.45 32.8532 189.715 33.5195L189.68 33.8124L189.715 34.898L189.698 36.0525L189.767 38.8095L189.732 39.2403C189.732 41.1128 189.807 42.1697 189.956 42.4109C190.105 42.6521 190.674 42.9164 191.662 43.2035C191.696 43.3988 191.714 43.5424 191.714 43.6343C191.714 43.7722 191.673 43.9847 191.593 44.2719C191.237 44.2834 190.938 44.2891 190.697 44.2891C190.456 44.2891 190.077 44.2547 189.56 44.1857L187.716 44.1513C186.797 44.1513 185.47 44.1915 183.736 44.2719C183.69 44.157 183.667 44.0364 183.667 43.91C183.667 43.8181 183.672 43.6343 183.684 43.3586ZM204.034 39.4126C204.379 39.3437 204.632 39.3092 204.792 39.3092C204.873 39.3092 204.993 39.315 205.154 39.3265L205.309 39.4988C205.93 40.5901 206.337 41.2506 206.533 41.4804C206.935 41.9514 207.331 42.3305 207.722 42.6177C207.986 42.8015 208.399 42.991 208.962 43.1863C209.341 43.3242 209.744 43.3931 210.169 43.3931C210.892 43.3931 211.513 43.1633 212.03 42.7038C212.547 42.2328 212.805 41.7274 212.805 41.1875C212.805 40.8199 212.707 40.5097 212.512 40.257C212.317 39.9928 211.926 39.7343 211.34 39.4816C211.053 39.3552 210.329 39.1484 209.169 38.8612C208.02 38.574 207.325 38.3845 207.084 38.2926C206.544 38.0858 206.062 37.7986 205.637 37.431C205.223 37.0634 204.907 36.6499 204.689 36.1903C204.39 35.5356 204.241 34.9727 204.241 34.5017C204.241 33.6286 204.367 32.9164 204.62 32.365C204.873 31.8021 205.229 31.3081 205.688 30.8831C206.022 30.5614 206.521 30.2685 207.188 30.0043C207.865 29.74 208.589 29.6079 209.359 29.6079C210.45 29.6079 211.409 29.6826 212.236 29.8319C213.063 29.9813 213.764 30.2053 214.339 30.504C214.408 30.7682 214.505 31.377 214.632 32.3305C214.758 33.284 214.821 33.8469 214.821 34.0192C214.821 34.0996 214.804 34.1858 214.769 34.2777C214.471 34.3696 214.224 34.4155 214.028 34.4155C213.914 34.4155 213.747 34.404 213.529 34.381C213.425 34.2202 213.287 33.979 213.115 33.6573C212.564 32.6349 211.995 31.9169 211.409 31.5034C210.835 31.0784 210.169 30.8658 209.41 30.8658C208.618 30.8658 207.951 31.0956 207.412 31.5551C207.021 31.8882 206.826 32.342 206.826 32.9164C206.826 33.2955 207.032 33.6803 207.446 34.0709C207.848 34.4729 208.549 34.7774 209.548 34.9841C211.053 35.3173 212.162 35.6504 212.874 35.9836C213.908 36.466 214.632 37.0347 215.045 37.6895C215.47 38.3443 215.683 39.1025 215.683 39.964C215.683 41.2966 215.177 42.4109 214.166 43.3069C213.167 44.1915 211.702 44.6338 209.772 44.6338C209.52 44.6338 208.859 44.5763 207.791 44.4614C207.308 44.404 206.74 44.2891 206.085 44.1168C205.924 44.0709 205.505 43.9043 204.827 43.6171C204.7 43.5482 204.609 43.4678 204.551 43.3759C204.505 43.2725 204.431 42.79 204.327 41.9284C204.143 40.5269 204.046 39.6883 204.034 39.4126ZM218.009 30.28C218.135 30.234 218.239 30.1995 218.319 30.1766H223.454L223.833 30.211L223.85 31.3655L223.816 33.0542L223.833 33.933L223.816 36.535V38.3098C223.816 39.4701 223.879 40.3833 224.005 41.0496C224.178 41.5551 224.453 41.9399 224.833 42.2041C225.223 42.4568 225.694 42.5832 226.246 42.5832C226.762 42.5832 227.182 42.5315 227.503 42.4281C227.825 42.3247 228.193 42.1295 228.606 41.8423C229.031 41.5551 229.301 41.3483 229.416 41.2219C229.749 40.8543 229.979 40.5154 230.105 40.2053L230.226 35.9146C230.249 35.4666 230.26 35.099 230.26 34.8118C230.26 34.5132 230.249 34.1398 230.226 33.6918C230.214 33.2323 230.209 32.9738 230.209 32.9164L230.226 32.2788L230.192 31.8997C229.916 31.7274 229.531 31.6183 229.037 31.5723L227.883 31.4862C227.814 31.4517 227.75 31.4115 227.693 31.3655C227.647 31.1358 227.624 30.9635 227.624 30.8486C227.624 30.7107 227.641 30.5155 227.676 30.2627C228.055 30.2053 228.382 30.1766 228.658 30.1766L231.312 30.211C232.024 30.211 232.897 30.1995 233.931 30.1766L233.965 31.4689L233.914 33.1231L233.948 35.1909L233.931 38.1547L233.896 39.4816L233.914 40.3776C233.868 40.9749 233.845 41.3138 233.845 41.3942C233.845 41.6814 233.896 41.894 234 42.0318C234.103 42.1697 234.201 42.2386 234.293 42.2386L235.878 42.1869L236.085 42.2214C236.119 42.6234 236.136 42.8532 236.136 42.9106C236.136 42.991 236.119 43.1174 236.085 43.2897C235.476 43.3127 235.039 43.3529 234.775 43.4103C233.546 43.686 232.202 44.0938 230.743 44.6338L230.054 44.5993L230.036 41.7906C229.899 41.9054 229.698 42.0835 229.433 42.3247C228.422 43.2208 227.555 43.8296 226.831 44.1513C226.108 44.4614 225.349 44.6165 224.557 44.6165C223.615 44.6165 222.799 44.4212 222.11 44.0307C221.421 43.6401 220.915 43.1576 220.594 42.5832C220.352 42.1352 220.192 41.4919 220.111 40.6533C220.088 40.435 220.077 39.3092 220.077 37.2759L220.094 36.7245C220.151 35.5987 220.18 34.7659 220.18 34.226C220.18 33.307 220.163 32.6924 220.128 32.3822C220.117 32.2329 220.059 32.0605 219.956 31.8653C219.795 31.7963 219.606 31.7446 219.387 31.7102C218.652 31.5838 218.193 31.4632 218.009 31.3483C217.951 31.3138 217.923 31.2392 217.923 31.1243C217.923 31.0554 217.928 30.9635 217.94 30.8486C217.963 30.7337 217.986 30.5442 218.009 30.28ZM236.826 43.4792C237.078 43.3069 237.411 43.1978 237.825 43.1519C238.618 43.0599 239.071 42.9393 239.186 42.79C239.416 42.4913 239.531 41.8825 239.531 40.9635V36.1042L239.514 34.9497V31.4689L239.462 27.4885V26.7992C239.462 25.8572 239.387 25.1622 239.238 24.7142C238.836 24.473 238.405 24.3523 237.946 24.3523C237.67 24.3523 237.411 24.3236 237.17 24.2662C237.136 23.979 237.119 23.7665 237.119 23.6286C237.119 23.5367 237.13 23.4333 237.153 23.3185C238.061 23.2151 239.003 22.9853 239.979 22.6292C240.955 22.2616 241.702 21.8882 242.219 21.5092L242.702 21.4919C242.805 21.4919 242.954 21.4977 243.15 21.5092C243.207 25.4839 243.236 28.2064 243.236 29.6769C243.236 30.1134 243.23 30.4638 243.218 30.728V30.8314L243.236 31.1588V38.7923L243.253 41.3081V41.7216C243.253 42.2156 243.333 42.566 243.494 42.7728C243.632 42.9221 243.925 43.014 244.373 43.0485C244.614 43.0714 245.091 43.1289 245.803 43.2208C245.861 43.462 245.889 43.6573 245.889 43.8066C245.889 43.9215 245.878 44.0823 245.855 44.2891L244.494 44.2202C243.735 44.1628 242.782 44.134 241.633 44.134L240.996 44.1168C240.341 44.1168 239.393 44.1685 238.152 44.2719H236.895L236.826 43.4792ZM246.923 31.176C248.279 30.6016 249.255 30.0387 249.853 29.4873C250.461 28.9359 251.11 28.0399 251.8 26.7992H252.765C252.868 27.0979 252.92 27.4138 252.92 27.7469C252.92 28.3443 252.914 28.8095 252.903 29.1427L252.851 30.1593C252.851 30.2168 252.857 30.3489 252.868 30.5557L253.264 30.5729C253.322 30.5729 253.862 30.5499 254.884 30.504C254.965 30.504 255.395 30.4925 256.177 30.4695C256.245 30.7797 256.28 31.0554 256.28 31.2966C256.28 31.5608 256.24 31.871 256.159 32.2271C255.78 32.2731 255.493 32.296 255.298 32.296C255.206 32.296 255.022 32.2846 254.746 32.2616H253.85L253.54 32.2443L252.713 32.2788L252.679 38.8612C252.667 40.1363 252.69 40.9347 252.747 41.2564C252.816 41.5666 252.954 41.8652 253.161 42.1524C253.425 42.2788 253.718 42.342 254.04 42.342C254.35 42.342 254.58 42.3133 254.729 42.2558C254.878 42.1984 255.131 42.0318 255.487 41.7561C255.556 41.6987 255.665 41.6183 255.815 41.5149C256.09 41.7331 256.314 41.9514 256.487 42.1697L256.556 42.3764C256.154 43.0083 255.585 43.508 254.85 43.8756C254.126 44.2317 253.351 44.4097 252.523 44.4097C251.455 44.4097 250.588 44.0709 249.922 43.3931C249.255 42.7153 248.922 41.6642 248.922 40.2397L248.991 37.207V32.296L248.457 32.2788L247.216 32.296L246.992 32.2443C246.923 32.141 246.889 32.0433 246.889 31.9514C246.889 31.8825 246.9 31.624 246.923 31.176ZM271.857 31.6757C272.592 32.3879 273.138 33.2093 273.494 34.1398C273.862 35.0588 274.046 35.9261 274.046 36.7418C274.046 38.2811 273.81 39.5218 273.339 40.4637C272.627 41.8882 271.668 42.9393 270.461 43.6171C269.255 44.2949 267.854 44.6338 266.257 44.6338C264.465 44.6338 262.943 44.2317 261.691 43.4276C260.45 42.6234 259.56 41.7102 259.02 40.6878C258.491 39.6654 258.227 38.396 258.227 36.8796C258.227 36.1099 258.353 35.3403 258.606 34.5706C258.859 33.7894 259.204 33.1117 259.64 32.5373C260.088 31.9629 260.576 31.4804 261.105 31.0898C261.874 30.5384 262.644 30.1479 263.414 29.9181C264.195 29.6769 265.137 29.5562 266.24 29.5562C268.641 29.5562 270.513 30.2627 271.857 31.6757ZM262.432 37.6378C262.535 39.0623 262.61 39.8836 262.656 40.1019C262.805 40.8716 263.04 41.5321 263.362 42.0835C263.58 42.4396 263.942 42.7555 264.448 43.0312C264.953 43.3069 265.556 43.4448 266.257 43.4448C267.096 43.4448 267.802 43.1806 268.376 42.6521C268.951 42.1122 269.364 41.2736 269.617 40.1363C269.778 39.3897 269.858 38.1662 269.858 36.466C269.858 34.3753 269.514 32.8991 268.824 32.0376C268.135 31.1645 267.228 30.728 266.102 30.728C265.217 30.728 264.482 30.975 263.896 31.4689C263.322 31.9629 262.92 32.6924 262.69 33.6573C262.541 34.2777 262.455 35.6045 262.432 37.6378ZM276.01 43.3931C276.159 43.2667 276.355 43.1748 276.596 43.1174C277.182 42.991 277.739 42.7613 278.267 42.4281C278.371 42.1524 278.422 41.2219 278.422 39.6366C278.422 36.7303 278.359 34.7659 278.233 33.7435C278.21 33.5597 278.118 33.3989 277.957 33.261C277.67 33.1117 277.279 32.9796 276.785 32.8647C276.556 32.8072 276.418 32.6809 276.372 32.4856L276.32 31.848C277.17 31.7331 277.94 31.446 278.629 30.9864C279.318 30.5155 279.835 30.0387 280.18 29.5562C280.364 29.292 280.525 29.091 280.662 28.9531L281.869 28.9014C281.926 29.1657 281.955 29.3839 281.955 29.5562C281.955 29.6826 281.949 29.8377 281.938 30.0215C281.926 30.4236 281.92 30.7567 281.92 31.0209C281.92 31.1473 281.926 31.624 281.938 32.4511C282.409 31.647 282.753 31.1071 282.971 30.8314C283.075 30.705 283.379 30.4236 283.885 29.987C284.275 29.6998 284.718 29.5562 285.212 29.5562C285.82 29.5562 286.349 29.763 286.797 30.1766C287.245 30.5901 287.469 31.0669 287.469 31.6068C287.469 32.1467 287.297 32.6349 286.952 33.0715C286.619 33.4965 286.171 33.709 285.608 33.709C285.114 33.709 284.597 33.5022 284.057 33.0887C283.735 32.836 283.477 32.7096 283.282 32.7096L283.161 32.7268C282.92 32.8072 282.701 33.0255 282.506 33.3816C282.185 33.956 282.024 34.5534 282.024 35.1737L282.058 35.6389C282.104 36.489 282.139 38.4821 282.162 41.6183C282.196 41.9054 282.305 42.1926 282.489 42.4798C282.696 42.6407 282.903 42.7555 283.109 42.8245C283.328 42.8934 283.701 42.9508 284.229 42.9968C284.758 43.0427 285.079 43.1174 285.194 43.2208C285.309 43.3127 285.367 43.4678 285.367 43.686C285.367 43.8124 285.332 43.979 285.263 44.1857H283.643L280.352 44.0134C279.525 44.0134 278.773 44.0479 278.095 44.1168H277.802C277.722 44.1168 277.124 44.1455 276.01 44.203C275.975 44.0192 275.958 43.8813 275.958 43.7894C275.958 43.6975 275.975 43.5654 276.01 43.3931ZM297.704 44.2374V42.9968C297.934 42.9278 298.313 42.8302 298.842 42.7038C299.588 42.52 300.145 42.3305 300.513 42.1352C300.72 41.7791 300.823 41.2851 300.823 40.6533L300.806 38.62L300.84 34.6912L300.823 33.7607C300.904 31.4862 300.944 30.3144 300.944 30.2455L300.909 27.9537L300.961 27.0232L300.875 25.0588L300.858 24.3179C300.846 24.203 300.806 24.0192 300.737 23.7665C300.266 23.5482 299.502 23.4104 298.445 23.3529C298.193 23.3414 297.992 23.3242 297.842 23.3012L297.79 21.7849L302.719 21.9916C303.328 22.0146 303.707 22.0261 303.856 22.0261C304.534 22.0261 305.619 21.9801 307.113 21.8882C307.951 21.8308 308.48 21.7963 308.698 21.7849C308.709 22.0031 308.715 22.1869 308.715 22.3363C308.715 22.5316 308.704 22.7843 308.681 23.0944C308.221 23.2553 307.693 23.4104 307.095 23.5597C306.51 23.6975 306.027 23.8411 305.648 23.9905C305.579 24.2892 305.545 24.7199 305.545 25.2828C305.545 25.7768 305.562 26.1789 305.596 26.489C305.562 28.4305 305.545 29.9238 305.545 30.9692L305.562 35.5183L305.51 37.8273L305.545 41.2736L305.527 41.9284C305.527 42.0203 305.55 42.1524 305.596 42.3247C306.297 42.4741 306.935 42.5775 307.509 42.6349C307.612 42.6464 307.963 42.6923 308.56 42.7728C308.606 43.1174 308.629 43.4046 308.629 43.6343C308.629 43.7607 308.623 43.956 308.612 44.2202C308.462 44.2202 308.348 44.2259 308.267 44.2374C307.9 44.2604 307.687 44.2719 307.63 44.2719C307.549 44.2719 307.4 44.2547 307.182 44.2202C307.021 44.1972 306.257 44.1168 304.89 43.979L301.84 43.9445C301.231 43.9445 300.346 44.0019 299.186 44.1168C298.428 44.1857 297.934 44.2259 297.704 44.2374ZM311.093 43.1002C311.185 43.0542 311.311 43.0255 311.472 43.014C312.15 42.968 312.69 42.8474 313.092 42.6521C313.172 42.6177 313.218 42.543 313.23 42.4281C313.253 42.3133 313.287 41.2679 313.333 39.292V38.2926L313.35 36.5177L313.333 34.674V34.2604C313.333 33.7205 313.207 33.3242 312.954 33.0715C312.713 32.8072 312.07 32.5258 311.024 32.2271V31.5206C311.242 31.4632 311.501 31.4 311.8 31.3311C312.857 31.1128 313.73 30.8026 314.419 30.4006C314.947 30.0904 315.47 29.6252 315.987 29.0048H316.935V29.2805L316.986 30.6591L316.969 31.2966L317.004 31.6068C318.095 30.7452 319.002 30.1766 319.726 29.9009C320.461 29.6252 321.3 29.4873 322.242 29.4873C323.149 29.4873 324.022 29.6826 324.861 30.0732C325.711 30.4638 326.418 31.1186 326.981 32.0376C327.796 31.2449 328.48 30.6878 329.031 30.3661C329.41 30.1479 329.927 29.9583 330.582 29.7975C331.248 29.6252 331.874 29.539 332.46 29.539C334.057 29.539 335.321 30.0215 336.251 30.9864C337.182 31.9629 337.647 33.284 337.647 34.9497V37.6895C337.647 38.2524 337.63 39.2231 337.595 40.6016V41.9284C337.595 42.1582 337.664 42.3822 337.802 42.6004C338.25 42.7957 338.635 42.9221 338.956 42.9795C339.186 43.014 339.404 43.0944 339.611 43.2208C339.634 43.4276 339.663 43.5999 339.697 43.7377L339.68 44.0823C339.358 44.1398 339.129 44.1685 338.991 44.1685C338.899 44.1685 338.618 44.1455 338.147 44.0996C337.687 44.0421 337.101 44.0134 336.389 44.0134C334.654 44.0134 333.276 44.0709 332.253 44.1857C332.173 43.8985 332.133 43.6688 332.133 43.4965L332.15 43.2552C332.299 43.1748 332.793 42.9738 333.632 42.6521C333.781 42.5028 333.867 42.3707 333.89 42.2558C333.948 41.9686 333.977 41.354 333.977 40.4121L333.89 35.5528C333.879 34.7372 333.816 34.0651 333.701 33.5367C333.586 32.9968 333.414 32.5775 333.184 32.2788C332.966 31.9686 332.667 31.7159 332.288 31.5206C331.909 31.3253 331.512 31.2277 331.099 31.2277C330.456 31.2277 329.801 31.4115 329.134 31.7791C328.468 32.1352 327.877 32.6809 327.36 33.4161L327.342 33.9158L327.377 36.1214L327.342 37.9307V39.6539L327.325 41.1875C327.325 41.9456 327.4 42.3937 327.549 42.5315C327.779 42.7498 328.342 42.9049 329.238 42.9968L329.772 43.1863C329.864 43.4505 329.91 43.6573 329.91 43.8066C329.91 43.8871 329.887 44.0249 329.841 44.2202L329.341 44.203H328.652L328.29 44.1857C327.475 44.1053 326.63 44.0594 325.757 44.0479L323.913 44.0134C323.465 44.0134 322.69 44.0651 321.587 44.1685L321.277 44.1168L321.26 43.1002C321.604 42.9968 322.225 42.9106 323.121 42.8417C323.178 42.8302 323.253 42.8072 323.345 42.7728C323.471 42.6234 323.546 42.4971 323.569 42.3937C323.626 42.1639 323.655 41.6987 323.655 40.9979L323.638 37.4999L323.672 36.5694C323.672 34.7774 323.609 33.6688 323.483 33.2438C323.322 32.6924 322.983 32.2443 322.466 31.8997C321.96 31.5436 321.352 31.3655 320.639 31.3655C319.709 31.3655 318.899 31.5896 318.21 32.0376C317.52 32.4741 317.124 32.8647 317.021 33.2093C317.009 33.3472 317.004 33.4505 317.004 33.5195L317.021 33.6918V33.8641C317.021 33.9675 316.992 34.1283 316.935 34.3466L316.986 39.292L317.004 41.8767C317.004 41.9686 317.015 42.118 317.038 42.3247L317.124 42.5832C317.446 42.6866 317.722 42.7613 317.951 42.8072C318.376 42.8991 318.698 43.0025 318.916 43.1174C318.951 43.3127 318.968 43.4505 318.968 43.5309C318.968 43.6803 318.922 43.8928 318.83 44.1685C318.646 44.18 318.514 44.1857 318.434 44.1857C318.307 44.1857 317.733 44.134 316.711 44.0307L314.832 44.0134C313.936 44.0134 312.851 44.0766 311.576 44.203L311.076 44.1857C311.053 44.0019 311.03 43.7894 311.007 43.5482C311.007 43.4448 311.036 43.2954 311.093 43.1002ZM354.982 31.6757C355.717 32.3879 356.263 33.2093 356.619 34.1398C356.986 35.0588 357.17 35.9261 357.17 36.7418C357.17 38.2811 356.935 39.5218 356.464 40.4637C355.751 41.8882 354.792 42.9393 353.586 43.6171C352.38 44.2949 350.978 44.6338 349.381 44.6338C347.589 44.6338 346.067 44.2317 344.815 43.4276C343.574 42.6234 342.684 41.7102 342.144 40.6878C341.616 39.6654 341.352 38.396 341.352 36.8796C341.352 36.1099 341.478 35.3403 341.731 34.5706C341.983 33.7894 342.328 33.1117 342.765 32.5373C343.213 31.9629 343.701 31.4804 344.229 31.0898C344.999 30.5384 345.769 30.1479 346.538 29.9181C347.319 29.6769 348.261 29.5562 349.364 29.5562C351.765 29.5562 353.638 30.2627 354.982 31.6757ZM345.556 37.6378C345.659 39.0623 345.734 39.8836 345.78 40.1019C345.929 40.8716 346.165 41.5321 346.487 42.0835C346.705 42.4396 347.067 42.7555 347.572 43.0312C348.078 43.3069 348.681 43.4448 349.381 43.4448C350.22 43.4448 350.927 43.1806 351.501 42.6521C352.075 42.1122 352.489 41.2736 352.742 40.1363C352.902 39.3897 352.983 38.1662 352.983 36.466C352.983 34.3753 352.638 32.8991 351.949 32.0376C351.26 31.1645 350.352 30.728 349.226 30.728C348.342 30.728 347.607 30.975 347.021 31.4689C346.446 31.9629 346.044 32.6924 345.815 33.6573C345.665 34.2777 345.579 35.6045 345.556 37.6378ZM359.186 23.4908L360.651 22.9394C361.018 22.8015 361.978 22.3248 363.528 21.5092H364.287C364.482 21.5092 364.654 21.5206 364.804 21.5436C364.815 21.8768 364.821 22.1065 364.821 22.2329L364.804 22.9394L364.89 29.4184L364.873 31.8997C365.206 31.5321 365.648 31.1473 366.199 30.7452C366.314 30.6648 366.63 30.504 367.147 30.2627C367.664 30.01 368.078 29.8492 368.388 29.7802C368.939 29.6539 369.427 29.5907 369.852 29.5907C370.99 29.5907 371.914 29.7343 372.627 30.0215C373.35 30.3087 374.028 30.7624 374.66 31.3828C375.303 31.9916 375.843 32.8474 376.28 33.9503C376.555 34.651 376.693 35.5068 376.693 36.5177C376.693 37.1725 376.578 37.9135 376.349 38.7406C376.13 39.5562 375.769 40.3546 375.263 41.1358C374.895 41.6987 374.373 42.2501 373.695 42.79C373.029 43.3299 372.259 43.7607 371.386 44.0823C370.812 44.3006 369.829 44.4097 368.439 44.4097C367.164 44.4097 365.734 43.9388 364.149 42.9968C363.735 42.744 363.437 42.5717 363.253 42.4798C363.023 42.813 362.765 43.215 362.477 43.686C362.202 44.157 362.012 44.4672 361.909 44.6165L361.047 44.6338C361.047 44.3581 361.059 44.0766 361.082 43.7894C361.116 43.5022 361.133 43.2323 361.133 42.9795L361.116 41.7044L361.168 41.2564C361.191 41.0726 361.202 40.7509 361.202 40.2914V27.6952C361.202 26.4316 361.162 25.6102 361.082 25.2311C361.059 25.1163 361.013 25.0359 360.944 24.9899C360.886 24.9325 360.3 24.697 359.186 24.2834V23.4908ZM364.924 32.9164L364.907 35.6045C364.907 38.5798 364.976 40.3604 365.114 40.9462C365.263 41.5321 365.648 42.0433 366.268 42.4798C366.889 42.9049 367.543 43.1174 368.233 43.1174C368.738 43.1174 369.244 43.014 369.749 42.8072C370.254 42.6004 370.639 42.3707 370.904 42.118C371.306 41.7389 371.604 41.3368 371.8 40.9118C372.11 40.2455 372.305 39.6366 372.385 39.0852C372.489 38.327 372.54 37.7239 372.54 37.2759C372.54 36.3339 372.345 35.4034 371.955 34.4844C371.576 33.5539 371.036 32.8647 370.335 32.4167C369.646 31.9572 368.893 31.7274 368.078 31.7274C367.572 31.7274 366.975 31.871 366.285 32.1582C365.596 32.4454 365.142 32.6981 364.924 32.9164ZM380.932 23.6803C380.932 23.06 381.133 22.5545 381.535 22.1639C381.937 21.7619 382.454 21.5608 383.086 21.5608C383.764 21.5608 384.327 21.7734 384.775 22.1984C385.223 22.612 385.447 23.083 385.447 23.6114C385.447 24.002 385.355 24.3925 385.171 24.7831C384.999 25.1737 384.717 25.4896 384.327 25.7309C383.948 25.9606 383.557 26.0755 383.155 26.0755C382.604 26.0755 382.092 25.84 381.621 25.369C381.162 24.898 380.932 24.3351 380.932 23.6803ZM378.52 44.2374L378.485 43.1174L380.432 42.8589C380.72 42.7785 380.915 42.6636 381.018 42.5143C381.133 42.3535 381.191 42.0031 381.191 41.4632V41.2736C381.191 41.1358 381.196 40.8888 381.208 40.5327C381.231 40.1651 381.242 39.8434 381.242 39.5677C381.242 39.3494 381.225 38.9301 381.191 38.3098L381.208 37.4482L381.191 36.6384L381.225 33.8296C381.225 33.4735 381.191 33.1059 381.122 32.7268C380.995 32.5545 380.766 32.4052 380.432 32.2788C380.099 32.1524 379.519 32.0605 378.692 32.0031V31.0381C379.875 30.9692 380.915 30.7222 381.811 30.2972C382.42 30.0215 383.08 29.5333 383.793 28.8325H384.947C384.993 30.257 385.016 32.1065 385.016 34.381L384.895 41.4115C384.895 41.894 384.918 42.3305 384.964 42.7211C385.32 42.8474 385.901 42.9738 386.705 43.1002C387.015 43.1461 387.262 43.2035 387.446 43.2725L387.428 44.2202C387.118 44.2317 386.889 44.2374 386.739 44.2374C386.567 44.2374 386.303 44.2259 385.947 44.203C384.775 44.1455 383.207 44.1168 381.242 44.1168C380.679 44.1168 380.134 44.1398 379.605 44.1857C379.077 44.2202 378.715 44.2374 378.52 44.2374ZM388.014 43.4792C388.267 43.3069 388.6 43.1978 389.014 43.1519C389.806 43.0599 390.26 42.9393 390.375 42.79C390.605 42.4913 390.72 41.8825 390.72 40.9635V36.1042L390.702 34.9497V31.4689L390.651 27.4885V26.7992C390.651 25.8572 390.576 25.1622 390.427 24.7142C390.025 24.473 389.594 24.3523 389.134 24.3523C388.859 24.3523 388.6 24.3236 388.359 24.2662C388.324 23.979 388.307 23.7665 388.307 23.6286C388.307 23.5367 388.319 23.4333 388.342 23.3185C389.249 23.2151 390.191 22.9853 391.168 22.6292C392.144 22.2616 392.891 21.8882 393.408 21.5092L393.89 21.4919C393.994 21.4919 394.143 21.4977 394.338 21.5092C394.396 25.4839 394.424 28.2064 394.424 29.6769C394.424 30.1134 394.419 30.4638 394.407 30.728V30.8314L394.424 31.1588V38.7923L394.442 41.3081V41.7216C394.442 42.2156 394.522 42.566 394.683 42.7728C394.821 42.9221 395.114 43.014 395.562 43.0485C395.803 43.0714 396.28 43.1289 396.992 43.2208C397.049 43.462 397.078 43.6573 397.078 43.8066C397.078 43.9215 397.067 44.0823 397.044 44.2891L395.682 44.2202C394.924 44.1628 393.971 44.134 392.822 44.134L392.184 44.1168C391.53 44.1168 390.582 44.1685 389.341 44.2719H388.083L388.014 43.4792ZM400.059 23.6803C400.059 23.06 400.26 22.5545 400.662 22.1639C401.064 21.7619 401.581 21.5608 402.213 21.5608C402.891 21.5608 403.454 21.7734 403.902 22.1984C404.35 22.612 404.574 23.083 404.574 23.6114C404.574 24.002 404.482 24.3925 404.298 24.7831C404.126 25.1737 403.844 25.4896 403.454 25.7309C403.075 25.9606 402.684 26.0755 402.282 26.0755C401.731 26.0755 401.219 25.84 400.748 25.369C400.289 24.898 400.059 24.3351 400.059 23.6803ZM397.647 44.2374L397.612 43.1174L399.559 42.8589C399.847 42.7785 400.042 42.6636 400.145 42.5143C400.26 42.3535 400.318 42.0031 400.318 41.4632V41.2736C400.318 41.1358 400.323 40.8888 400.335 40.5327C400.358 40.1651 400.369 39.8434 400.369 39.5677C400.369 39.3494 400.352 38.9301 400.318 38.3098L400.335 37.4482L400.318 36.6384L400.352 33.8296C400.352 33.4735 400.318 33.1059 400.249 32.7268C400.122 32.5545 399.893 32.4052 399.559 32.2788C399.226 32.1524 398.646 32.0605 397.819 32.0031V31.0381C399.002 30.9692 400.042 30.7222 400.938 30.2972C401.547 30.0215 402.207 29.5333 402.92 28.8325H404.074C404.12 30.257 404.143 32.1065 404.143 34.381L404.022 41.4115C404.022 41.894 404.045 42.3305 404.091 42.7211C404.447 42.8474 405.028 42.9738 405.832 43.1002C406.142 43.1461 406.389 43.2035 406.573 43.2725L406.555 44.2202C406.245 44.2317 406.015 44.2374 405.866 44.2374C405.694 44.2374 405.43 44.2259 405.073 44.203C403.902 44.1455 402.334 44.1168 400.369 44.1168C399.806 44.1168 399.261 44.1398 398.732 44.1857C398.204 44.2202 397.842 44.2374 397.647 44.2374ZM422.96 40.9979L423.356 41.2564C423.459 41.3368 423.523 41.4344 423.546 41.5493L423.563 41.6355C423.287 42.6579 422.925 43.3644 422.477 43.755C422.029 44.134 421.472 44.3236 420.806 44.3236C420.128 44.3236 419.542 44.1398 419.048 43.7722C418.566 43.3931 418.123 42.7326 417.721 41.7906C417.227 42.6636 416.532 43.3242 415.636 43.7722C414.74 44.2087 413.643 44.427 412.345 44.427C411.15 44.427 410.272 44.18 409.709 43.686C409.146 43.1806 408.864 42.52 408.864 41.7044C408.864 41.3253 408.945 40.9405 409.106 40.5499C409.278 40.1593 409.548 39.7745 409.915 39.3954C410.295 39.0048 410.898 38.5798 411.725 38.1203C411.851 38.0513 412.288 37.8561 413.034 37.5344L417.325 35.8113C417.359 35.3747 417.377 34.9325 417.377 34.4844C417.377 32.9336 417.187 31.8767 416.808 31.3138C416.578 30.9692 416.176 30.7969 415.602 30.7969C415.027 30.7969 414.499 30.906 414.017 31.1243C413.534 31.3426 413.184 31.624 412.965 31.9686C412.805 32.2214 412.667 32.6981 412.552 33.3989C412.471 33.9043 412.397 34.1972 412.328 34.2777C412.156 34.4959 411.84 34.697 411.38 34.8808C410.932 35.0531 410.628 35.1794 410.467 35.2598C409.847 35.5585 409.353 35.7079 408.985 35.7079C408.824 35.57 408.744 35.3747 408.744 35.122C408.744 34.4672 408.882 33.9043 409.157 33.4333C409.571 32.767 410.191 32.1237 411.018 31.5034C411.857 30.8716 412.638 30.4293 413.362 30.1766C414.35 29.8549 415.556 29.6941 416.98 29.6941C417.899 29.6941 418.686 29.8664 419.341 30.211C420.007 30.5442 420.467 31.0439 420.72 31.7102C420.984 32.3765 421.116 33.5769 421.116 35.3115L421.064 38.1547L421.099 40.2397V40.7739C421.099 41.2564 421.162 41.5895 421.288 41.7733C421.426 41.9456 421.598 42.0318 421.805 42.0318C421.932 42.0318 422.041 41.9973 422.133 41.9284L422.65 41.1185L422.96 40.9979ZM417.308 37.0002C416.653 37.2185 415.912 37.5861 415.085 38.103C414.269 38.6085 413.701 39.1197 413.379 39.6366C413.149 40.0157 413.034 40.481 413.034 41.0324C413.034 41.5264 413.184 41.9342 413.482 42.2558C413.781 42.5775 414.126 42.7383 414.516 42.7383C415.16 42.7383 415.705 42.5545 416.153 42.1869C416.762 41.6929 417.118 41.3023 417.222 41.0152C417.325 40.7165 417.377 39.8836 417.377 38.5166C417.377 38.0111 417.354 37.5057 417.308 37.0002ZM413.637 27.8159C413.994 26.5522 414.579 24.7085 415.395 22.2846L420.116 22.3363L414.93 27.8331C414.505 27.8446 414.252 27.8503 414.172 27.8503C414.011 27.8503 413.833 27.8388 413.637 27.8159ZM424.614 43.3931C424.763 43.2667 424.959 43.1748 425.2 43.1174C425.786 42.991 426.343 42.7613 426.871 42.4281C426.975 42.1524 427.026 41.2219 427.026 39.6366C427.026 36.7303 426.963 34.7659 426.837 33.7435C426.814 33.5597 426.722 33.3989 426.561 33.261C426.274 33.1117 425.883 32.9796 425.389 32.8647C425.16 32.8072 425.022 32.6809 424.976 32.4856L424.924 31.848C425.774 31.7331 426.544 31.446 427.233 30.9864C427.922 30.5155 428.439 30.0387 428.784 29.5562C428.968 29.292 429.129 29.091 429.266 28.9531L430.473 28.9014C430.53 29.1657 430.559 29.3839 430.559 29.5562C430.559 29.6826 430.553 29.8377 430.542 30.0215C430.53 30.4236 430.524 30.7567 430.524 31.0209C430.524 31.1473 430.53 31.624 430.542 32.4511C431.013 31.647 431.357 31.1071 431.575 30.8314C431.679 30.705 431.983 30.4236 432.489 29.987C432.879 29.6998 433.322 29.5562 433.816 29.5562C434.424 29.5562 434.953 29.763 435.401 30.1766C435.849 30.5901 436.073 31.0669 436.073 31.6068C436.073 32.1467 435.901 32.6349 435.556 33.0715C435.223 33.4965 434.775 33.709 434.212 33.709C433.718 33.709 433.201 33.5022 432.661 33.0887C432.339 32.836 432.081 32.7096 431.886 32.7096L431.765 32.7268C431.524 32.8072 431.305 33.0255 431.11 33.3816C430.789 33.956 430.628 34.5534 430.628 35.1737L430.662 35.6389C430.708 36.489 430.743 38.4821 430.766 41.6183C430.8 41.9054 430.909 42.1926 431.093 42.4798C431.3 42.6407 431.506 42.7555 431.713 42.8245C431.932 42.8934 432.305 42.9508 432.833 42.9968C433.362 43.0427 433.683 43.1174 433.798 43.2208C433.913 43.3127 433.971 43.4678 433.971 43.686C433.971 43.8124 433.936 43.979 433.867 44.1857H432.247L428.956 44.0134C428.129 44.0134 427.377 44.0479 426.699 44.1168H426.406C426.326 44.1168 425.728 44.1455 424.614 44.203C424.579 44.0192 424.562 43.8813 424.562 43.7894C424.562 43.6975 424.579 43.5654 424.614 43.3931ZM439.037 23.6803C439.037 23.06 439.238 22.5545 439.64 22.1639C440.042 21.7619 440.559 21.5608 441.191 21.5608C441.868 21.5608 442.431 21.7734 442.879 22.1984C443.327 22.612 443.551 23.083 443.551 23.6114C443.551 24.002 443.459 24.3925 443.276 24.7831C443.103 25.1737 442.822 25.4896 442.431 25.7309C442.052 25.9606 441.662 26.0755 441.259 26.0755C440.708 26.0755 440.197 25.84 439.726 25.369C439.266 24.898 439.037 24.3351 439.037 23.6803ZM436.624 44.2374L436.59 43.1174L438.537 42.8589C438.824 42.7785 439.019 42.6636 439.123 42.5143C439.238 42.3535 439.295 42.0031 439.295 41.4632V41.2736C439.295 41.1358 439.301 40.8888 439.312 40.5327C439.335 40.1651 439.347 39.8434 439.347 39.5677C439.347 39.3494 439.33 38.9301 439.295 38.3098L439.312 37.4482L439.295 36.6384L439.33 33.8296C439.33 33.4735 439.295 33.1059 439.226 32.7268C439.1 32.5545 438.87 32.4052 438.537 32.2788C438.204 32.1524 437.624 32.0605 436.797 32.0031V31.0381C437.98 30.9692 439.019 30.7222 439.915 30.2972C440.524 30.0215 441.185 29.5333 441.897 28.8325H443.052C443.098 30.257 443.12 32.1065 443.12 34.381L443 41.4115C443 41.894 443.023 42.3305 443.069 42.7211C443.425 42.8474 444.005 42.9738 444.809 43.1002C445.119 43.1461 445.366 43.2035 445.55 43.2725L445.533 44.2202C445.223 44.2317 444.993 44.2374 444.844 44.2374C444.671 44.2374 444.407 44.2259 444.051 44.203C442.879 44.1455 441.311 44.1168 439.347 44.1168C438.784 44.1168 438.238 44.1398 437.71 44.1857C437.181 44.2202 436.82 44.2374 436.624 44.2374ZM460.921 31.6757C461.656 32.3879 462.201 33.2093 462.558 34.1398C462.925 35.0588 463.109 35.9261 463.109 36.7418C463.109 38.2811 462.873 39.5218 462.402 40.4637C461.69 41.8882 460.731 42.9393 459.525 43.6171C458.319 44.2949 456.917 44.6338 455.32 44.6338C453.528 44.6338 452.006 44.2317 450.754 43.4276C449.513 42.6234 448.623 41.7102 448.083 40.6878C447.555 39.6654 447.29 38.396 447.29 36.8796C447.29 36.1099 447.417 35.3403 447.67 34.5706C447.922 33.7894 448.267 33.1117 448.703 32.5373C449.151 31.9629 449.64 31.4804 450.168 31.0898C450.938 30.5384 451.707 30.1479 452.477 29.9181C453.258 29.6769 454.2 29.5562 455.303 29.5562C457.704 29.5562 459.577 30.2627 460.921 31.6757ZM451.495 37.6378C451.598 39.0623 451.673 39.8836 451.719 40.1019C451.868 40.8716 452.104 41.5321 452.425 42.0835C452.644 42.4396 453.006 42.7555 453.511 43.0312C454.017 43.3069 454.62 43.4448 455.32 43.4448C456.159 43.4448 456.865 43.1806 457.44 42.6521C458.014 42.1122 458.428 41.2736 458.68 40.1363C458.841 39.3897 458.922 38.1662 458.922 36.466C458.922 34.3753 458.577 32.8991 457.888 32.0376C457.199 31.1645 456.291 30.728 455.165 30.728C454.281 30.728 453.546 30.975 452.96 31.4689C452.385 31.9629 451.983 32.6924 451.753 33.6573C451.604 34.2777 451.518 35.6045 451.495 37.6378Z" fill="black"/>
<path d="M325.26 306.142C326.747 306.142 328.004 305.628 329.034 304.599C330.12 303.513 330.691 302.226 330.749 300.74V252.716C330.749 251.344 330.206 250.201 329.119 249.286C328.033 248.314 326.747 247.828 325.26 247.828H324.231L324.145 246.97H349.272C351.044 246.97 352.96 246.799 355.018 246.456C357.133 246.113 358.62 245.77 359.477 245.427V256.232H358.62V254.688C358.62 253.316 358.134 252.144 357.162 251.172C356.247 250.201 355.132 249.686 353.817 249.629H336.323V276.128H350.816C351.959 276.07 352.931 275.642 353.731 274.841C354.532 274.041 354.932 273.04 354.932 271.84V270.639H355.79V284.189H354.932V282.902C354.932 281.759 354.532 280.787 353.731 279.987C352.988 279.186 352.045 278.757 350.901 278.7H336.323V304.342H348.586C352.817 304.342 356.047 303.398 358.277 301.512C360.506 299.625 362.364 296.824 363.851 293.107H364.708L359.734 307H324.145V306.142H325.26ZM373.917 306.142C375.404 306.142 376.661 305.628 377.69 304.599C378.777 303.513 379.348 302.226 379.406 300.74V253.231C379.348 251.744 378.777 250.486 377.69 249.457C376.661 248.371 375.404 247.828 373.917 247.828H372.802V246.97H391.583V247.828H390.468C388.41 247.828 386.838 248.714 385.752 250.486C385.237 251.344 384.98 252.259 384.98 253.231V304.342H397.243C401.474 304.342 404.704 303.398 406.933 301.512C409.163 299.625 411.021 296.824 412.508 293.107H413.365L408.391 307H372.802V306.142H373.917ZM426.743 254.431C432.86 248.657 440.778 245.77 450.497 245.77C460.273 245.77 468.22 248.657 474.337 254.431C480.455 260.148 483.513 267.666 483.513 276.985C483.513 286.304 480.455 293.851 474.337 299.625C468.22 305.342 460.273 308.201 450.497 308.201C440.778 308.201 432.86 305.342 426.743 299.625C420.625 293.851 417.567 286.304 417.567 276.985C417.567 267.666 420.625 260.148 426.743 254.431ZM431.373 297.738C436.233 302.998 442.608 305.628 450.497 305.628C458.387 305.628 464.733 302.998 469.535 297.738C474.395 292.479 476.824 285.561 476.824 276.985C476.824 268.41 474.395 261.492 469.535 256.232C464.733 250.972 458.387 248.342 450.497 248.342C442.608 248.342 436.233 250.972 431.373 256.232C426.571 261.492 424.17 268.41 424.17 276.985C424.17 285.561 426.571 292.479 431.373 297.738Z" fill="black"/>
<path d="M141.932 146.84C143.596 146.84 145.004 146.264 146.155 145.112C147.371 143.896 148.011 142.457 148.075 140.793V87.0394C148.075 85.5036 147.467 84.2238 146.251 83.1999C145.036 82.112 143.596 81.5681 141.932 81.5681H140.78L140.684 80.6082H168.809C170.792 80.6082 172.936 80.4162 175.24 80.0323C177.608 79.6483 179.271 79.2644 180.231 78.8804V90.9749H179.271V89.2471C179.271 87.7113 178.727 86.3995 177.64 85.3116C176.616 84.2238 175.368 83.6478 173.896 83.5838H154.314V113.244H170.536C171.816 113.18 172.904 112.7 173.8 111.804C174.696 110.908 175.144 109.789 175.144 108.445V107.101H176.104V122.267H175.144V120.827C175.144 119.547 174.696 118.46 173.8 117.564C172.968 116.668 171.912 116.188 170.632 116.124H154.314V144.824H168.041C172.776 144.824 176.392 143.768 178.887 141.657C181.383 139.545 183.463 136.409 185.127 132.25H186.086L180.519 147.8H140.684V146.84H141.932ZM265.003 81.5681C263.403 81.5681 262.027 82.144 260.876 83.2959C259.724 84.3837 259.116 85.7276 259.052 87.3274V136.857C259.052 140.569 259.276 144.088 259.724 147.416L259.916 149.144H259.052L206.738 93.2786V141.081C206.738 142.681 207.314 144.056 208.466 145.208C209.618 146.296 210.994 146.84 212.593 146.84H214.417V147.8H194.644V146.84H196.467C198.067 146.84 199.443 146.296 200.595 145.208C201.747 144.056 202.323 142.649 202.323 140.985V91.1669C202.323 87.2634 202.099 83.7758 201.651 80.7042L201.459 79.1684H202.419L254.732 135.033V87.4234C254.668 85.7596 254.06 84.3837 252.908 83.2959C251.757 82.144 250.381 81.5681 248.781 81.5681H246.957V80.6082H266.731V81.5681H265.003ZM338.354 146.84H339.122V147.8H317.525V146.84H318.389C319.733 146.84 320.725 146.424 321.365 145.592C322.068 144.696 322.42 143.864 322.42 143.097C322.42 142.329 322.292 141.561 322.036 140.793L315.893 124.475H289.976L283.545 140.889C283.289 141.657 283.161 142.425 283.161 143.192C283.161 143.896 283.481 144.696 284.121 145.592C284.825 146.424 285.849 146.84 287.193 146.84H288.057V147.8H268.763V146.84H269.627C271.227 146.84 272.795 146.328 274.33 145.304C275.866 144.28 277.114 142.777 278.074 140.793L299.767 89.1511C302.135 83.9678 303.319 80.6722 303.319 79.2644H304.183L329.908 140.793C330.803 142.777 332.019 144.28 333.555 145.304C335.091 146.328 336.691 146.84 338.354 146.84ZM291.128 121.595H314.741L303.223 90.7829L291.128 121.595ZM387.75 89.1511C387.75 87.6153 387.206 86.3035 386.118 85.2156C385.03 84.0638 383.751 83.4558 382.279 83.3919H364.041V140.889C364.105 142.553 364.713 143.96 365.865 145.112C367.081 146.264 368.521 146.84 370.184 146.84H371.432V147.8H350.411V146.84H351.659C353.322 146.84 354.73 146.264 355.882 145.112C357.098 143.96 357.738 142.585 357.802 140.985V83.3919H339.564C338.028 83.4558 336.716 84.0638 335.629 85.2156C334.605 86.3035 334.093 87.6153 334.093 89.1511V90.7829L333.133 90.8789V78.7844C334.093 79.1684 335.757 79.5523 338.124 79.9363C340.492 80.3202 342.668 80.5122 344.651 80.5122H377.095C380.231 80.5122 382.823 80.2882 384.87 79.8403C386.982 79.3284 388.262 78.9764 388.71 78.7844V90.8789L387.75 90.7829V89.1511ZM402.223 88.9592C409.07 82.496 417.933 79.2644 428.811 79.2644C439.754 79.2644 448.649 82.496 455.496 88.9592C462.343 95.3584 465.767 103.773 465.767 114.204C465.767 124.635 462.343 133.082 455.496 139.545C448.649 145.944 439.754 149.144 428.811 149.144C417.933 149.144 409.07 145.944 402.223 139.545C395.375 133.082 391.952 124.635 391.952 114.204C391.952 103.773 395.375 95.3584 402.223 88.9592ZM407.406 137.433C412.845 143.32 419.98 146.264 428.811 146.264C437.642 146.264 444.745 143.32 450.121 137.433C455.56 131.546 458.28 123.803 458.28 114.204C458.28 104.605 455.56 96.8622 450.121 90.9749C444.745 85.0876 437.642 82.144 428.811 82.144C419.98 82.144 412.845 85.0876 407.406 90.9749C402.031 96.8622 399.343 104.605 399.343 114.204C399.343 123.803 402.031 131.546 407.406 137.433Z" fill="black"/>
</svg>
