<svg width="489" height="320" viewBox="0 0 489 320" fill="none" xmlns="http://www.w3.org/2000/svg">
<path d="M169.098 165.694C163.796 167.082 159.063 167.776 154.897 167.776C150.858 167.776 147.26 167.524 144.104 167.019C140.949 166.514 137.54 165.504 133.88 163.989C130.345 162.601 127 160.96 123.844 159.066C120.689 157.173 117.533 154.838 114.377 152.061C108.57 147.39 103.269 142.341 98.472 136.913C93.8015 131.485 84.7129 121.324 71.2062 106.428C57.6995 91.4069 48.7372 81.4346 44.3191 76.5116C39.901 71.5887 36.4928 69.0009 34.0944 68.7485V66.855C41.4158 66.855 46.2757 66.7288 48.674 66.4763C51.1987 66.0976 53.8495 65.5296 56.6266 64.7722C59.4036 63.8886 61.7389 62.7525 63.6324 61.364C71.08 56.5672 74.8038 48.6147 74.8038 37.5064C74.8038 28.2916 72.721 20.9071 68.5554 15.3529C64.516 9.79879 58.7725 6.9586 51.3249 6.83237H27.846V119.683C27.846 122.838 28.9821 125.615 31.2542 128.014C33.6526 130.412 36.5559 131.611 39.9641 131.611H42.2363L42.4256 133.505H0.958884V131.611H3.42038C6.57615 131.611 9.35322 130.475 11.7516 128.203C14.15 125.931 15.4123 123.154 15.5385 119.872V14.7849C15.4123 11.5029 14.15 8.72582 11.7516 6.45368C9.47945 4.05529 6.70238 2.8561 3.42038 2.8561H0.958884V0.962642H52.0823C63.1906 0.962642 72.0898 4.11841 78.78 10.4299C85.5965 16.6152 89.0047 24.8833 89.0047 35.2342C89.0047 45.4589 85.9121 54.2951 79.7268 61.7427C73.5415 69.064 65.9676 72.7247 57.0053 72.7247C57.0053 72.7247 56.9421 72.7247 56.8159 72.7247C61.1078 77.269 65.9676 82.5707 71.3955 88.6298C93.2334 112.74 107.245 127.887 113.43 134.073C119.616 140.258 125.044 145.307 129.714 149.22C134.511 153.26 138.74 156.226 142.4 158.12C149.848 162.159 157.232 164.179 164.554 164.179C166.068 164.179 167.583 164.053 169.098 163.8V165.694Z" fill="black"/>
<path d="M338.922 317.301C339.565 317.301 340.208 317.301 340.852 317.301V318.909C337.85 319.338 334.473 319.552 330.722 319.552C327.077 319.552 322.521 318.748 317.054 317.14C311.694 315.532 306.817 312.531 302.422 308.136C293.417 299.131 287.95 287.447 286.021 273.083L276.212 201.529L242.767 277.102C239.766 283.641 237.944 289.108 237.3 293.503H235.692L194.047 202.977L186.972 282.891C186.758 284.713 187.294 286.321 188.58 287.715C189.973 289.108 191.474 289.805 193.082 289.805H195.655V291.252H164.461V289.644H167.033C169.928 289.644 172.447 288.787 174.591 287.072C176.842 285.249 178.235 282.891 178.771 279.997L188.901 192.203C179.468 173.659 168.159 164.386 154.974 164.386C153.795 164.386 152.562 164.44 151.276 164.547V162.939C154.17 162.189 156.528 161.813 158.351 161.813C160.173 161.813 162.156 161.921 164.3 162.135C166.444 162.242 168.963 162.725 171.857 163.582C174.752 164.44 177.485 165.726 180.058 167.441C182.63 169.049 184.882 170.764 186.811 172.587C188.741 174.302 190.563 176.231 192.278 178.375C195.172 182.234 197.477 185.932 199.192 189.47L237.944 273.404L281.197 176.446H282.644L297.598 271.635C299.849 286.643 304.673 298.006 312.069 305.724C319.573 313.442 328.524 317.301 338.922 317.301Z" fill="black"/>
<rect x="34.9261" y="231.556" width="10.4019" height="62.4055" fill="black"/>
<rect x="74.022" y="184.767" width="6.78321" height="78.0069" rx="3.39161" transform="rotate(50 74.022 184.767)" fill="black"/>
<rect x="69.9804" y="190.619" width="6.78321" height="77.3286" rx="3.39161" transform="rotate(-50 69.9804 190.619)" fill="black"/>
<rect x="103.212" y="238.703" width="10.4019" height="62.4055" fill="black"/>
<rect x="69.0691" y="215.276" width="10.4019" height="62.4055" fill="black"/>
<path d="M180.433 20.7853C180.566 21.0909 180.836 21.9617 181.243 23.3978C181.426 24.0497 181.523 24.7422 181.533 25.4756H180.143C179.165 24.0904 178.157 23.0973 177.118 22.4964C176.079 21.8853 174.918 21.5797 173.635 21.5797C172.056 21.5797 170.783 22.196 169.815 23.4284C168.501 25.0987 167.844 27.426 167.844 30.4103C167.844 32.1418 167.956 33.3742 168.181 34.1075C168.547 35.2992 169.011 36.2718 169.571 37.0255C169.999 37.5959 170.559 38.0492 171.251 38.3853C172.148 38.8436 173.105 39.0728 174.124 39.0728C175.244 39.0728 176.324 38.7265 177.362 38.0339C178.412 37.3311 179.415 36.2871 180.372 34.9019C180.749 34.8306 181.243 34.7899 181.854 34.7797C181.813 35.1668 181.747 35.5691 181.655 35.9867C181.625 36.1496 181.508 36.7964 181.304 37.9269L181.167 38.3853L180.953 39.1033C180.331 39.582 179.455 39.9436 178.325 40.188C177.205 40.4223 175.824 40.5394 174.185 40.5394C172.932 40.5394 171.745 40.4223 170.625 40.188C169.515 39.9538 168.562 39.582 167.768 39.0728C166.607 38.3394 165.695 37.545 165.033 36.6894C164.371 35.8339 163.877 34.9019 163.551 33.8936C163.236 32.8853 163.078 31.7547 163.078 30.502C163.078 27.4668 164.076 24.9612 166.072 22.9853C168.079 21.0094 170.635 20.0214 173.742 20.0214C175.005 20.0214 176.191 20.0876 177.301 20.22C178.422 20.3423 179.466 20.5307 180.433 20.7853ZM196.093 29.1117C196.745 29.7432 197.229 30.4714 197.544 31.2964C197.87 32.1112 198.033 32.8802 198.033 33.6033C198.033 34.9681 197.824 36.0681 197.407 36.9033C196.775 38.1663 195.925 39.0982 194.855 39.6992C193.786 40.3001 192.543 40.6005 191.128 40.6005C189.539 40.6005 188.189 40.2441 187.079 39.5311C185.979 38.8181 185.19 38.0084 184.711 37.1019C184.243 36.1955 184.008 35.07 184.008 33.7256C184.008 33.0432 184.12 32.3607 184.344 31.6783C184.568 30.9857 184.874 30.3848 185.261 29.8756C185.658 29.3663 186.091 28.9385 186.56 28.5922C187.242 28.1033 187.924 27.7571 188.607 27.5533C189.299 27.3395 190.135 27.2325 191.112 27.2325C193.241 27.2325 194.901 27.8589 196.093 29.1117ZM187.736 34.3978C187.828 35.6607 187.894 36.389 187.935 36.5825C188.067 37.2649 188.276 37.8505 188.561 38.3394C188.755 38.6552 189.075 38.9353 189.524 39.1797C189.972 39.4242 190.506 39.5464 191.128 39.5464C191.871 39.5464 192.498 39.3121 193.007 38.8436C193.516 38.3649 193.883 37.6214 194.107 36.6131C194.249 35.951 194.321 34.8663 194.321 33.3589C194.321 31.5052 194.015 30.1964 193.404 29.4325C192.793 28.6584 191.988 28.2714 190.99 28.2714C190.206 28.2714 189.554 28.4904 189.035 28.9283C188.525 29.3663 188.169 30.0131 187.965 30.8686C187.833 31.4186 187.756 32.595 187.736 34.3978ZM199.805 39.47C200.07 39.3478 200.315 39.2663 200.539 39.2255C201.099 39.1339 201.425 39.0575 201.517 38.9964C201.669 38.9047 201.771 38.7927 201.822 38.6603C201.883 38.4566 201.914 38.0084 201.914 37.3158V35.9867L201.929 34.9019L201.883 33.2978V32.3353C201.883 31.6936 201.832 31.1691 201.73 30.7617C201.69 30.6089 201.562 30.4561 201.349 30.3033C201.063 30.0996 200.58 29.901 199.897 29.7075L199.882 28.9742C200.014 28.9334 200.131 28.908 200.233 28.8978C200.345 28.8774 200.758 28.7756 201.471 28.5922C202.031 28.3885 202.392 28.2459 202.555 28.1645C202.606 28.1339 202.688 28.0881 202.8 28.027C202.922 27.9251 203.06 27.8233 203.212 27.7214C203.518 27.5075 203.885 27.1358 204.312 26.6061L205.122 26.545L205.092 28.2714C205.081 28.4445 205.076 28.582 205.076 28.6839C205.076 28.7654 205.081 28.9996 205.092 29.3867C205.937 28.6533 206.706 28.1441 207.398 27.8589C208.305 27.4821 209.166 27.2936 209.98 27.2936C210.938 27.2936 211.778 27.533 212.501 28.0117C213.224 28.4802 213.698 29.0251 213.922 29.6464C214.146 30.2677 214.258 31.5205 214.258 33.4047L214.197 38.3853C214.197 38.6195 214.238 38.813 214.319 38.9658C214.421 39.0473 214.701 39.1237 215.16 39.195L215.908 39.3325C216 39.4649 216.046 39.6279 216.046 39.8214C216.046 39.9436 216.041 40.1117 216.03 40.3255L213.036 40.1117L212.15 40.1422H211.447L209.43 40.295H208.911C208.901 40.1626 208.896 40.0607 208.896 39.9894C208.896 39.8061 208.906 39.6075 208.926 39.3936C209.069 39.363 209.425 39.3121 209.996 39.2408C210.148 39.2205 210.317 39.1848 210.5 39.1339C210.704 39.0524 210.821 38.9709 210.851 38.8894C210.933 38.7163 210.973 38.3853 210.973 37.8964C210.973 37.0408 210.963 36.3839 210.943 35.9256L210.958 34.1533C210.968 32.0043 210.836 30.6649 210.561 30.1353C210.174 29.3714 209.593 28.9895 208.819 28.9895C208.249 28.9895 207.658 29.1371 207.047 29.4325C206.436 29.7177 205.805 30.1557 205.153 30.7464L205.122 31.0061L205.153 31.9686L205.137 32.9922L205.198 35.4367L205.168 35.8186C205.168 37.4788 205.234 38.4158 205.367 38.6297C205.499 38.8436 206.003 39.0779 206.879 39.3325C206.91 39.5056 206.925 39.633 206.925 39.7144C206.925 39.8367 206.889 40.0251 206.818 40.2797C206.502 40.2899 206.237 40.295 206.023 40.295C205.81 40.295 205.473 40.2644 205.015 40.2033L203.38 40.1728C202.566 40.1728 201.389 40.2084 199.851 40.2797C199.811 40.1779 199.79 40.0709 199.79 39.9589C199.79 39.8774 199.795 39.7144 199.805 39.47ZM217.848 35.9714C218.154 35.9103 218.378 35.8797 218.521 35.8797C218.592 35.8797 218.699 35.8848 218.842 35.895L218.979 36.0478C219.529 37.0154 219.891 37.601 220.064 37.8047C220.42 38.2223 220.772 38.5584 221.118 38.813C221.352 38.976 221.719 39.1441 222.218 39.3172C222.554 39.4394 222.91 39.5005 223.287 39.5005C223.929 39.5005 224.479 39.2968 224.937 38.8894C225.396 38.4718 225.625 38.0237 225.625 37.545C225.625 37.2191 225.538 36.9441 225.365 36.72C225.192 36.4857 224.846 36.2566 224.326 36.0325C224.072 35.9205 223.43 35.7371 222.401 35.4825C221.383 35.2279 220.767 35.0598 220.553 34.9783C220.074 34.795 219.646 34.5404 219.269 34.2144C218.903 33.8885 218.623 33.5219 218.429 33.1144C218.164 32.5339 218.032 32.0348 218.032 31.6172C218.032 30.8432 218.144 30.2117 218.368 29.7228C218.592 29.2237 218.908 28.7858 219.315 28.4089C219.611 28.1237 220.054 27.864 220.644 27.6297C221.245 27.3955 221.887 27.2783 222.569 27.2783C223.537 27.2783 224.387 27.3446 225.121 27.477C225.854 27.6094 226.475 27.808 226.985 28.0728C227.046 28.307 227.132 28.8469 227.244 29.6922C227.356 30.5376 227.412 31.0367 227.412 31.1895C227.412 31.2607 227.397 31.3371 227.367 31.4186C227.102 31.5001 226.883 31.5408 226.71 31.5408C226.608 31.5408 226.46 31.5307 226.267 31.5103C226.175 31.3677 226.053 31.1538 225.9 30.8686C225.411 29.9621 224.907 29.3256 224.387 28.9589C223.878 28.582 223.287 28.3936 222.615 28.3936C221.912 28.3936 221.322 28.5973 220.843 29.0047C220.497 29.3001 220.323 29.7024 220.323 30.2117C220.323 30.5478 220.507 30.889 220.873 31.2353C221.23 31.5918 221.851 31.8617 222.737 32.045C224.072 32.3404 225.054 32.6357 225.686 32.9311C226.603 33.3589 227.244 33.8631 227.611 34.4436C227.988 35.0242 228.176 35.6964 228.176 36.4603C228.176 37.6418 227.728 38.6297 226.832 39.4242C225.946 40.2084 224.647 40.6005 222.936 40.6005C222.712 40.6005 222.126 40.5496 221.179 40.4478C220.751 40.3968 220.247 40.295 219.667 40.1422C219.524 40.1015 219.152 39.9538 218.551 39.6992C218.439 39.638 218.358 39.5667 218.307 39.4853C218.266 39.3936 218.2 38.9658 218.108 38.2019C217.945 36.9593 217.859 36.2158 217.848 35.9714ZM230.239 27.8742C230.351 27.8334 230.442 27.8029 230.514 27.7825H235.066L235.403 27.8131L235.418 28.8367L235.387 30.3339L235.403 31.1131L235.387 33.42V34.9936C235.387 36.0223 235.443 36.832 235.555 37.4228C235.708 37.8709 235.953 38.2121 236.289 38.4464C236.635 38.6705 237.053 38.7825 237.541 38.7825C238 38.7825 238.372 38.7367 238.657 38.645C238.942 38.5533 239.268 38.3802 239.635 38.1255C240.011 37.8709 240.251 37.6876 240.353 37.5755C240.648 37.2496 240.852 36.9492 240.964 36.6742L241.071 32.87C241.091 32.4728 241.101 32.1469 241.101 31.8922C241.101 31.6274 241.091 31.2964 241.071 30.8992C241.06 30.4918 241.055 30.2626 241.055 30.2117L241.071 29.6464L241.04 29.3103C240.796 29.1575 240.454 29.0608 240.016 29.02L238.993 28.9436C238.932 28.9131 238.876 28.8774 238.825 28.8367C238.784 28.633 238.764 28.4802 238.764 28.3783C238.764 28.2561 238.779 28.083 238.81 27.8589C239.146 27.808 239.436 27.7825 239.68 27.7825L242.033 27.8131C242.665 27.8131 243.439 27.8029 244.355 27.7825L244.386 28.9283L244.34 30.395L244.371 32.2283L244.355 34.8561L244.325 36.0325L244.34 36.8269C244.299 37.3566 244.279 37.657 244.279 37.7283C244.279 37.983 244.325 38.1714 244.416 38.2936C244.508 38.4158 244.595 38.4769 244.676 38.4769L246.082 38.4311L246.265 38.4617C246.296 38.8181 246.311 39.0218 246.311 39.0728C246.311 39.1441 246.296 39.2561 246.265 39.4089C245.725 39.4292 245.338 39.4649 245.104 39.5158C244.014 39.7603 242.822 40.1218 241.529 40.6005L240.918 40.57L240.903 38.0797C240.78 38.1816 240.602 38.3394 240.368 38.5533C239.472 39.3478 238.703 39.8876 238.061 40.1728C237.419 40.4478 236.747 40.5853 236.044 40.5853C235.209 40.5853 234.486 40.4121 233.875 40.0658C233.264 39.7195 232.816 39.2917 232.53 38.7825C232.316 38.3853 232.174 37.8149 232.103 37.0714C232.082 36.8779 232.072 35.8797 232.072 34.0769L232.087 33.5881C232.138 32.5899 232.164 31.8515 232.164 31.3728C232.164 30.558 232.148 30.0131 232.118 29.7381C232.108 29.6057 232.057 29.4529 231.965 29.2797C231.823 29.2186 231.654 29.1728 231.461 29.1422C230.809 29.0302 230.402 28.9233 230.239 28.8214C230.188 28.7908 230.162 28.7246 230.162 28.6228C230.162 28.5617 230.167 28.4802 230.178 28.3783C230.198 28.2765 230.218 28.1084 230.239 27.8742ZM246.922 39.5769C247.146 39.4242 247.441 39.3274 247.808 39.2867C248.511 39.2052 248.913 39.0982 249.015 38.9658C249.219 38.701 249.321 38.1612 249.321 37.3464V33.0381L249.305 32.0144V28.9283L249.26 25.3992V24.7881C249.26 23.9529 249.193 23.3367 249.061 22.9395C248.704 22.7256 248.322 22.6186 247.915 22.6186C247.671 22.6186 247.441 22.5932 247.228 22.5422C247.197 22.2876 247.182 22.0992 247.182 21.977C247.182 21.8955 247.192 21.8038 247.212 21.702C248.017 21.6103 248.852 21.4066 249.718 21.0909C250.584 20.7649 251.246 20.4339 251.704 20.0978L252.132 20.0825C252.223 20.0825 252.356 20.0876 252.529 20.0978C252.58 23.6219 252.605 26.0358 252.605 27.3395C252.605 27.7265 252.6 28.0371 252.59 28.2714V28.3631L252.605 28.6533V35.4214L252.621 37.6519V38.0186C252.621 38.4566 252.692 38.7672 252.835 38.9505C252.957 39.083 253.216 39.1644 253.614 39.195C253.828 39.2154 254.25 39.2663 254.882 39.3478C254.933 39.5617 254.958 39.7348 254.958 39.8672C254.958 39.9691 254.948 40.1117 254.928 40.295L253.721 40.2339C253.048 40.183 252.203 40.1575 251.185 40.1575L250.619 40.1422C250.039 40.1422 249.198 40.188 248.098 40.2797H246.983L246.922 39.5769ZM255.875 28.6686C257.077 28.1594 257.942 27.6603 258.472 27.1714C259.012 26.6825 259.587 25.8881 260.198 24.7881H261.054C261.146 25.0529 261.191 25.333 261.191 25.6284C261.191 26.158 261.186 26.5705 261.176 26.8658L261.13 27.7672C261.13 27.8182 261.135 27.9353 261.146 28.1186L261.497 28.1339C261.548 28.1339 262.027 28.1135 262.933 28.0728C263.004 28.0728 263.386 28.0626 264.079 28.0422C264.14 28.3172 264.171 28.5617 264.171 28.7756C264.171 29.0098 264.135 29.2848 264.064 29.6006C263.728 29.6413 263.473 29.6617 263.3 29.6617C263.218 29.6617 263.055 29.6515 262.811 29.6311H262.016L261.741 29.6158L261.008 29.6464L260.978 35.4825C260.967 36.6131 260.988 37.3209 261.039 37.6061C261.1 37.8811 261.222 38.1459 261.405 38.4005C261.64 38.5126 261.899 38.5686 262.184 38.5686C262.459 38.5686 262.663 38.5431 262.796 38.4922C262.928 38.4413 263.152 38.2936 263.468 38.0492C263.529 37.9982 263.626 37.9269 263.758 37.8353C264.003 38.0288 264.201 38.2223 264.354 38.4158L264.415 38.5992C264.059 39.1593 263.554 39.6024 262.903 39.9283C262.261 40.2441 261.573 40.4019 260.84 40.4019C259.893 40.4019 259.124 40.1015 258.533 39.5005C257.942 38.8996 257.647 37.9677 257.647 36.7047L257.708 34.0158V29.6617L257.234 29.6464L256.134 29.6617L255.936 29.6158C255.875 29.5242 255.844 29.4376 255.844 29.3561C255.844 29.295 255.854 29.0658 255.875 28.6686ZM277.982 29.1117C278.634 29.7432 279.117 30.4714 279.433 31.2964C279.759 32.1112 279.922 32.8802 279.922 33.6033C279.922 34.9681 279.713 36.0681 279.296 36.9033C278.664 38.1663 277.814 39.0982 276.744 39.6992C275.675 40.3001 274.432 40.6005 273.016 40.6005C271.428 40.6005 270.078 40.2441 268.968 39.5311C267.868 38.8181 267.078 38.0084 266.6 37.1019C266.131 36.1955 265.897 35.07 265.897 33.7256C265.897 33.0432 266.009 32.3607 266.233 31.6783C266.457 30.9857 266.763 30.3848 267.15 29.8756C267.547 29.3663 267.98 28.9385 268.448 28.5922C269.131 28.1033 269.813 27.7571 270.496 27.5533C271.188 27.3395 272.023 27.2325 273.001 27.2325C275.13 27.2325 276.79 27.8589 277.982 29.1117ZM269.625 34.3978C269.716 35.6607 269.783 36.389 269.823 36.5825C269.956 37.2649 270.165 37.8505 270.45 38.3394C270.643 38.6552 270.964 38.9353 271.412 39.1797C271.86 39.4242 272.395 39.5464 273.016 39.5464C273.76 39.5464 274.386 39.3121 274.896 38.8436C275.405 38.3649 275.771 37.6214 275.996 36.6131C276.138 35.951 276.209 34.8663 276.209 33.3589C276.209 31.5052 275.904 30.1964 275.293 29.4325C274.682 28.6584 273.877 28.2714 272.879 28.2714C272.095 28.2714 271.443 28.4904 270.923 28.9283C270.414 29.3663 270.058 30.0131 269.854 30.8686C269.722 31.4186 269.645 32.595 269.625 34.3978ZM281.664 39.5005C281.796 39.3885 281.969 39.307 282.183 39.2561C282.702 39.1441 283.196 38.9404 283.665 38.645C283.757 38.4005 283.802 37.5755 283.802 36.17C283.802 33.5931 283.746 31.8515 283.634 30.945C283.614 30.782 283.533 30.6395 283.39 30.5172C283.135 30.3848 282.789 30.2677 282.351 30.1658C282.147 30.1149 282.025 30.0029 281.984 29.8297L281.939 29.2645C282.692 29.1626 283.375 28.908 283.986 28.5006C284.597 28.083 285.055 27.6603 285.361 27.2325C285.524 26.9983 285.666 26.82 285.789 26.6978L286.858 26.652C286.909 26.8862 286.934 27.0797 286.934 27.2325C286.934 27.3446 286.929 27.4821 286.919 27.645C286.909 28.0015 286.904 28.2969 286.904 28.5311C286.904 28.6432 286.909 29.0658 286.919 29.7992C287.337 29.0862 287.642 28.6075 287.836 28.3631C287.927 28.251 288.197 28.0015 288.646 27.6145C288.992 27.3598 289.384 27.2325 289.822 27.2325C290.362 27.2325 290.83 27.4158 291.227 27.7825C291.625 28.1492 291.823 28.5719 291.823 29.0506C291.823 29.5293 291.671 29.9621 291.365 30.3492C291.07 30.726 290.672 30.9145 290.173 30.9145C289.735 30.9145 289.277 30.7311 288.798 30.3645C288.513 30.1404 288.284 30.0283 288.111 30.0283L288.004 30.0436C287.79 30.1149 287.596 30.3084 287.423 30.6242C287.138 31.1334 286.996 31.6631 286.996 32.2131L287.026 32.6256C287.067 33.3793 287.097 35.1464 287.118 37.9269C287.148 38.1816 287.245 38.4362 287.408 38.6908C287.591 38.8334 287.775 38.9353 287.958 38.9964C288.152 39.0575 288.483 39.1084 288.951 39.1492C289.42 39.1899 289.705 39.2561 289.807 39.3478C289.909 39.4292 289.959 39.5667 289.959 39.7603C289.959 39.8723 289.929 40.02 289.868 40.2033H288.432L285.514 40.0505C284.78 40.0505 284.113 40.0811 283.512 40.1422H283.252C283.181 40.1422 282.652 40.1677 281.664 40.2186C281.633 40.0556 281.618 39.9334 281.618 39.8519C281.618 39.7705 281.633 39.6533 281.664 39.5005ZM300.898 40.2492V39.1492C301.102 39.088 301.438 39.0015 301.907 38.8894C302.569 38.7265 303.063 38.5584 303.389 38.3853C303.572 38.0695 303.664 37.6316 303.664 37.0714L303.648 35.2686L303.679 31.7853L303.664 30.9603C303.735 28.9436 303.77 27.9047 303.77 27.8436L303.74 25.8117L303.786 24.9867L303.709 23.245L303.694 22.5881C303.684 22.4862 303.648 22.3233 303.587 22.0992C303.17 21.9057 302.492 21.7835 301.555 21.7325C301.331 21.7223 301.153 21.7071 301.021 21.6867L300.975 20.3423L305.344 20.5256C305.884 20.546 306.22 20.5561 306.352 20.5561C306.953 20.5561 307.916 20.5154 309.24 20.4339C309.983 20.383 310.452 20.3524 310.645 20.3423C310.656 20.5358 310.661 20.6987 310.661 20.8311C310.661 21.0043 310.651 21.2284 310.63 21.5034C310.223 21.646 309.754 21.7835 309.225 21.9159C308.705 22.0381 308.277 22.1654 307.941 22.2978C307.88 22.5626 307.85 22.9446 307.85 23.4436C307.85 23.8816 307.865 24.2381 307.895 24.5131C307.865 26.2344 307.85 27.5584 307.85 28.4853L307.865 32.5186L307.819 34.5658L307.85 37.6214L307.834 38.2019C307.834 38.2834 307.855 38.4005 307.895 38.5533C308.517 38.6857 309.082 38.7774 309.591 38.8283C309.683 38.8385 309.994 38.8792 310.523 38.9505C310.564 39.2561 310.584 39.5107 310.584 39.7144C310.584 39.8265 310.579 39.9996 310.569 40.2339C310.437 40.2339 310.335 40.239 310.264 40.2492C309.938 40.2695 309.749 40.2797 309.698 40.2797C309.627 40.2797 309.495 40.2644 309.301 40.2339C309.158 40.2135 308.481 40.1422 307.269 40.02L304.565 39.9894C304.025 39.9894 303.241 40.0404 302.212 40.1422C301.54 40.2033 301.102 40.239 300.898 40.2492ZM312.769 39.2408C312.851 39.2001 312.963 39.1746 313.105 39.1644C313.706 39.1237 314.185 39.0167 314.541 38.8436C314.613 38.813 314.653 38.7468 314.664 38.645C314.684 38.5431 314.714 37.6163 314.755 35.8644V34.9783L314.77 33.4047L314.755 31.77V31.4033C314.755 30.9246 314.643 30.5732 314.419 30.3492C314.205 30.1149 313.635 29.8654 312.708 29.6006V28.9742C312.902 28.9233 313.131 28.8672 313.395 28.8061C314.333 28.6126 315.107 28.3376 315.718 27.9811C316.186 27.7061 316.65 27.2936 317.108 26.7436H317.948V26.9881L317.994 28.2103L317.979 28.7756L318.009 29.0506C318.977 28.2867 319.782 27.7825 320.423 27.5381C321.075 27.2936 321.819 27.1714 322.654 27.1714C323.458 27.1714 324.232 27.3446 324.976 27.6908C325.73 28.0371 326.356 28.6177 326.855 29.4325C327.578 28.7297 328.184 28.2358 328.673 27.9506C329.009 27.7571 329.468 27.589 330.048 27.4464C330.639 27.2936 331.194 27.2172 331.713 27.2172C333.129 27.2172 334.25 27.645 335.075 28.5006C335.9 29.3663 336.312 30.5376 336.312 32.0144V34.4436C336.312 34.9427 336.297 35.8033 336.266 37.0255V38.2019C336.266 38.4056 336.327 38.6042 336.45 38.7978C336.847 38.9709 337.188 39.083 337.473 39.1339C337.677 39.1644 337.87 39.2357 338.054 39.3478C338.074 39.5311 338.1 39.6839 338.13 39.8061L338.115 40.1117C337.83 40.1626 337.626 40.188 337.504 40.188C337.422 40.188 337.173 40.1677 336.755 40.1269C336.348 40.076 335.828 40.0505 335.197 40.0505C333.659 40.0505 332.437 40.1015 331.53 40.2033C331.459 39.9487 331.423 39.745 331.423 39.5922L331.438 39.3783C331.571 39.307 332.009 39.1288 332.752 38.8436C332.885 38.7112 332.961 38.5941 332.982 38.4922C333.032 38.2376 333.058 37.6927 333.058 36.8575L332.982 32.5492C332.971 31.826 332.915 31.2302 332.813 30.7617C332.712 30.283 332.559 29.9112 332.355 29.6464C332.162 29.3714 331.897 29.1473 331.561 28.9742C331.225 28.801 330.873 28.7145 330.507 28.7145C329.936 28.7145 329.356 28.8774 328.765 29.2033C328.174 29.5191 327.65 30.0029 327.191 30.6547L327.176 31.0978L327.207 33.0533L327.176 34.6575V36.1853L327.161 37.545C327.161 38.2172 327.227 38.6144 327.359 38.7367C327.563 38.9302 328.062 39.0677 328.857 39.1492L329.33 39.3172C329.412 39.5515 329.452 39.7348 329.452 39.8672C329.452 39.9385 329.432 40.0607 329.391 40.2339L328.948 40.2186H328.337L328.016 40.2033C327.293 40.132 326.545 40.0913 325.77 40.0811L324.136 40.0505C323.739 40.0505 323.051 40.0964 322.073 40.188L321.798 40.1422L321.783 39.2408C322.089 39.1492 322.639 39.0728 323.433 39.0117C323.484 39.0015 323.55 38.9811 323.632 38.9505C323.744 38.8181 323.81 38.7061 323.83 38.6144C323.881 38.4107 323.907 37.9982 323.907 37.3769L323.891 34.2756L323.922 33.4506C323.922 31.8617 323.866 30.8788 323.754 30.502C323.611 30.0131 323.311 29.6158 322.852 29.3103C322.404 28.9945 321.864 28.8367 321.233 28.8367C320.408 28.8367 319.69 29.0353 319.079 29.4325C318.468 29.8195 318.116 30.1658 318.025 30.4714C318.014 30.5936 318.009 30.6853 318.009 30.7464L318.025 30.8992V31.052C318.025 31.1436 317.999 31.2862 317.948 31.4797L317.994 35.8644L318.009 38.1561C318.009 38.2376 318.02 38.37 318.04 38.5533L318.116 38.7825C318.401 38.8742 318.646 38.9404 318.85 38.9811C319.226 39.0626 319.512 39.1542 319.705 39.2561C319.736 39.4292 319.751 39.5515 319.751 39.6228C319.751 39.7552 319.71 39.9436 319.629 40.188C319.466 40.1982 319.349 40.2033 319.277 40.2033C319.165 40.2033 318.656 40.1575 317.75 40.0658L316.084 40.0505C315.29 40.0505 314.327 40.1066 313.197 40.2186L312.754 40.2033C312.733 40.0404 312.713 39.8519 312.693 39.638C312.693 39.5464 312.718 39.414 312.769 39.2408ZM351.682 29.1117C352.333 29.7432 352.817 30.4714 353.133 31.2964C353.459 32.1112 353.622 32.8802 353.622 33.6033C353.622 34.9681 353.413 36.0681 352.995 36.9033C352.364 38.1663 351.513 39.0982 350.444 39.6992C349.375 40.3001 348.132 40.6005 346.716 40.6005C345.127 40.6005 343.778 40.2441 342.668 39.5311C341.568 38.8181 340.778 38.0084 340.3 37.1019C339.831 36.1955 339.597 35.07 339.597 33.7256C339.597 33.0432 339.709 32.3607 339.933 31.6783C340.157 30.9857 340.463 30.3848 340.85 29.8756C341.247 29.3663 341.68 28.9385 342.148 28.5922C342.831 28.1033 343.513 27.7571 344.195 27.5533C344.888 27.3395 345.723 27.2325 346.701 27.2325C348.83 27.2325 350.49 27.8589 351.682 29.1117ZM343.325 34.3978C343.416 35.6607 343.482 36.389 343.523 36.5825C343.656 37.2649 343.864 37.8505 344.15 38.3394C344.343 38.6552 344.664 38.9353 345.112 39.1797C345.56 39.4242 346.095 39.5464 346.716 39.5464C347.46 39.5464 348.086 39.3121 348.595 38.8436C349.105 38.3649 349.471 37.6214 349.695 36.6131C349.838 35.951 349.909 34.8663 349.909 33.3589C349.909 31.5052 349.604 30.1964 348.993 29.4325C348.382 28.6584 347.577 28.2714 346.579 28.2714C345.794 28.2714 345.143 28.4904 344.623 28.9283C344.114 29.3663 343.757 30.0131 343.554 30.8686C343.421 31.4186 343.345 32.595 343.325 34.3978ZM355.409 21.8547L356.708 21.3659C357.034 21.2436 357.884 20.821 359.259 20.0978H359.932C360.105 20.0978 360.257 20.108 360.39 20.1284C360.4 20.4237 360.405 20.6274 360.405 20.7395L360.39 21.3659L360.466 27.1103L360.451 29.3103C360.746 28.9844 361.138 28.6432 361.627 28.2867C361.729 28.2154 362.009 28.0728 362.468 27.8589C362.926 27.6348 363.293 27.4922 363.568 27.4311C364.056 27.3191 364.489 27.2631 364.866 27.2631C365.875 27.2631 366.694 27.3904 367.326 27.645C367.968 27.8996 368.569 28.302 369.129 28.852C369.699 29.3918 370.178 30.1506 370.565 31.1283C370.809 31.7496 370.931 32.5084 370.931 33.4047C370.931 33.9853 370.83 34.6422 370.626 35.3756C370.432 36.0987 370.112 36.8066 369.663 37.4992C369.338 37.9982 368.874 38.4871 368.273 38.9658C367.682 39.4445 367 39.8265 366.226 40.1117C365.717 40.3052 364.846 40.4019 363.613 40.4019C362.483 40.4019 361.215 39.9843 359.809 39.1492C359.443 38.9251 359.178 38.7723 359.015 38.6908C358.811 38.9862 358.582 39.3427 358.327 39.7603C358.083 40.1779 357.915 40.4529 357.823 40.5853L357.059 40.6005C357.059 40.3561 357.069 40.1066 357.09 39.8519C357.12 39.5973 357.136 39.358 357.136 39.1339L357.12 38.0033L357.166 37.6061C357.187 37.4431 357.197 37.158 357.197 36.7506V25.5825C357.197 24.4622 357.161 23.7339 357.09 23.3978C357.069 23.2959 357.029 23.2247 356.968 23.1839C356.917 23.133 356.397 22.9242 355.409 22.5575V21.8547ZM360.497 30.2117L360.482 32.595C360.482 35.233 360.543 36.8117 360.665 37.3311C360.797 37.8505 361.138 38.3038 361.688 38.6908C362.238 39.0677 362.819 39.2561 363.43 39.2561C363.878 39.2561 364.326 39.1644 364.775 38.9811C365.223 38.7978 365.564 38.5941 365.798 38.37C366.155 38.0339 366.419 37.6774 366.593 37.3005C366.868 36.7098 367.041 36.17 367.112 35.6811C367.204 35.0089 367.25 34.4742 367.25 34.0769C367.25 33.2418 367.076 32.4168 366.73 31.602C366.394 30.777 365.915 30.1658 365.294 29.7686C364.683 29.3612 364.016 29.1575 363.293 29.1575C362.844 29.1575 362.315 29.2848 361.704 29.5395C361.093 29.7941 360.69 30.0182 360.497 30.2117ZM374.69 22.0228C374.69 21.4728 374.868 21.0247 375.225 20.6784C375.581 20.3219 376.039 20.1436 376.6 20.1436C377.2 20.1436 377.7 20.3321 378.097 20.7089C378.494 21.0756 378.693 21.4932 378.693 21.9617C378.693 22.308 378.611 22.6543 378.448 23.0006C378.295 23.3469 378.046 23.627 377.7 23.8409C377.363 24.0446 377.017 24.1464 376.661 24.1464C376.172 24.1464 375.719 23.9376 375.301 23.52C374.894 23.1024 374.69 22.6034 374.69 22.0228ZM372.551 40.2492L372.52 39.2561L374.247 39.0269C374.501 38.9556 374.675 38.8538 374.766 38.7214C374.868 38.5788 374.919 38.2681 374.919 37.7894V37.6214C374.919 37.4992 374.924 37.2802 374.934 36.9644C374.955 36.6385 374.965 36.3533 374.965 36.1089C374.965 35.9154 374.95 35.5436 374.919 34.9936L374.934 34.2297L374.919 33.5117L374.95 31.0214C374.95 30.7057 374.919 30.3797 374.858 30.0436C374.746 29.8908 374.542 29.7584 374.247 29.6464C373.951 29.5344 373.437 29.4529 372.704 29.402V28.5464C373.753 28.4853 374.675 28.2663 375.469 27.8895C376.009 27.645 376.594 27.2121 377.226 26.5908H378.25C378.29 27.8538 378.311 29.4936 378.311 31.5103L378.204 37.7436C378.204 38.1714 378.224 38.5584 378.265 38.9047C378.581 39.0167 379.095 39.1288 379.808 39.2408C380.083 39.2816 380.302 39.3325 380.465 39.3936L380.45 40.2339C380.175 40.2441 379.971 40.2492 379.838 40.2492C379.686 40.2492 379.451 40.239 379.136 40.2186C378.097 40.1677 376.706 40.1422 374.965 40.1422C374.466 40.1422 373.982 40.1626 373.513 40.2033C373.045 40.2339 372.724 40.2492 372.551 40.2492ZM380.969 39.5769C381.193 39.4242 381.488 39.3274 381.855 39.2867C382.558 39.2052 382.96 39.0982 383.062 38.9658C383.266 38.701 383.368 38.1612 383.368 37.3464V33.0381L383.352 32.0144V28.9283L383.306 25.3992V24.7881C383.306 23.9529 383.24 23.3367 383.108 22.9395C382.751 22.7256 382.369 22.6186 381.962 22.6186C381.718 22.6186 381.488 22.5932 381.274 22.5422C381.244 22.2876 381.229 22.0992 381.229 21.977C381.229 21.8955 381.239 21.8038 381.259 21.702C382.064 21.6103 382.899 21.4066 383.765 21.0909C384.631 20.7649 385.293 20.4339 385.751 20.0978L386.179 20.0825C386.27 20.0825 386.403 20.0876 386.576 20.0978C386.627 23.6219 386.652 26.0358 386.652 27.3395C386.652 27.7265 386.647 28.0371 386.637 28.2714V28.3631L386.652 28.6533V35.4214L386.668 37.6519V38.0186C386.668 38.4566 386.739 38.7672 386.881 38.9505C387.004 39.083 387.263 39.1644 387.661 39.195C387.874 39.2154 388.297 39.2663 388.929 39.3478C388.98 39.5617 389.005 39.7348 389.005 39.8672C389.005 39.9691 388.995 40.1117 388.974 40.295L387.768 40.2339C387.095 40.183 386.25 40.1575 385.231 40.1575L384.666 40.1422C384.086 40.1422 383.245 40.188 382.145 40.2797H381.03L380.969 39.5769ZM391.648 22.0228C391.648 21.4728 391.826 21.0247 392.183 20.6784C392.539 20.3219 392.998 20.1436 393.558 20.1436C394.159 20.1436 394.658 20.3321 395.055 20.7089C395.452 21.0756 395.651 21.4932 395.651 21.9617C395.651 22.308 395.569 22.6543 395.406 23.0006C395.254 23.3469 395.004 23.627 394.658 23.8409C394.322 24.0446 393.975 24.1464 393.619 24.1464C393.13 24.1464 392.677 23.9376 392.259 23.52C391.852 23.1024 391.648 22.6034 391.648 22.0228ZM389.509 40.2492L389.479 39.2561L391.205 39.0269C391.46 38.9556 391.633 38.8538 391.724 38.7214C391.826 38.5788 391.877 38.2681 391.877 37.7894V37.6214C391.877 37.4992 391.882 37.2802 391.893 36.9644C391.913 36.6385 391.923 36.3533 391.923 36.1089C391.923 35.9154 391.908 35.5436 391.877 34.9936L391.893 34.2297L391.877 33.5117L391.908 31.0214C391.908 30.7057 391.877 30.3797 391.816 30.0436C391.704 29.8908 391.5 29.7584 391.205 29.6464C390.91 29.5344 390.395 29.4529 389.662 29.402V28.5464C390.711 28.4853 391.633 28.2663 392.427 27.8895C392.967 27.645 393.553 27.2121 394.184 26.5908H395.208C395.249 27.8538 395.269 29.4936 395.269 31.5103L395.162 37.7436C395.162 38.1714 395.182 38.5584 395.223 38.9047C395.539 39.0167 396.053 39.1288 396.766 39.2408C397.041 39.2816 397.26 39.3325 397.423 39.3936L397.408 40.2339C397.133 40.2441 396.929 40.2492 396.797 40.2492C396.644 40.2492 396.41 40.239 396.094 40.2186C395.055 40.1677 393.665 40.1422 391.923 40.1422C391.424 40.1422 390.94 40.1626 390.472 40.2033C390.003 40.2339 389.682 40.2492 389.509 40.2492ZM411.952 37.3769L412.304 37.6061C412.395 37.6774 412.451 37.764 412.472 37.8658L412.487 37.9422C412.242 38.8487 411.922 39.4751 411.524 39.8214C411.127 40.1575 410.633 40.3255 410.042 40.3255C409.442 40.3255 408.922 40.1626 408.484 39.8367C408.056 39.5005 407.664 38.9149 407.308 38.0797C406.87 38.8538 406.254 39.4394 405.459 39.8367C404.665 40.2237 403.692 40.4172 402.541 40.4172C401.482 40.4172 400.703 40.1982 400.204 39.7603C399.705 39.3121 399.455 38.7265 399.455 38.0033C399.455 37.6672 399.526 37.326 399.669 36.9797C399.822 36.6334 400.061 36.2922 400.387 35.9561C400.723 35.6098 401.258 35.233 401.991 34.8256C402.103 34.7644 402.49 34.5913 403.152 34.3061L406.956 32.7783C406.987 32.3913 407.002 31.9992 407.002 31.602C407.002 30.227 406.834 29.2899 406.498 28.7908C406.294 28.4853 405.938 28.3325 405.429 28.3325C404.919 28.3325 404.451 28.4293 404.023 28.6228C403.595 28.8163 403.285 29.0658 403.091 29.3714C402.949 29.5955 402.826 30.0182 402.724 30.6395C402.653 31.0876 402.587 31.3473 402.526 31.4186C402.373 31.6121 402.093 31.7904 401.686 31.9533C401.288 32.1061 401.018 32.2182 400.876 32.2894C400.326 32.5543 399.888 32.6867 399.562 32.6867C399.419 32.5644 399.348 32.3913 399.348 32.1672C399.348 31.5867 399.47 31.0876 399.715 30.67C400.081 30.0793 400.631 29.5089 401.365 28.9589C402.108 28.3987 402.801 28.0066 403.443 27.7825C404.318 27.4973 405.388 27.3547 406.651 27.3547C407.466 27.3547 408.163 27.5075 408.744 27.8131C409.335 28.1084 409.742 28.5515 409.966 29.1422C410.2 29.733 410.317 30.7973 410.317 32.3353L410.272 34.8561L410.302 36.7047V37.1783C410.302 37.6061 410.358 37.9015 410.47 38.0644C410.592 38.2172 410.745 38.2936 410.929 38.2936C411.041 38.2936 411.137 38.263 411.219 38.2019L411.677 37.4839L411.952 37.3769ZM406.941 33.8325C406.361 34.026 405.704 34.3519 404.97 34.8103C404.247 35.2584 403.743 35.7117 403.458 36.17C403.254 36.5061 403.152 36.9186 403.152 37.4075C403.152 37.8455 403.285 38.207 403.549 38.4922C403.814 38.7774 404.12 38.92 404.466 38.92C405.036 38.92 405.52 38.757 405.918 38.4311C406.457 37.9931 406.773 37.6468 406.865 37.3922C406.956 37.1274 407.002 36.389 407.002 35.1769C407.002 34.7288 406.982 34.2806 406.941 33.8325ZM403.687 25.6895C404.003 24.5691 404.522 22.9344 405.245 20.7853L409.431 20.8311L404.833 25.7047C404.456 25.7149 404.232 25.72 404.161 25.72C404.018 25.72 403.86 25.7098 403.687 25.6895ZM413.419 39.5005C413.551 39.3885 413.724 39.307 413.938 39.2561C414.458 39.1441 414.952 38.9404 415.42 38.645C415.512 38.4005 415.558 37.5755 415.558 36.17C415.558 33.5931 415.502 31.8515 415.39 30.945C415.369 30.782 415.288 30.6395 415.145 30.5172C414.891 30.3848 414.544 30.2677 414.106 30.1658C413.903 30.1149 413.78 30.0029 413.74 29.8297L413.694 29.2645C414.448 29.1626 415.13 28.908 415.741 28.5006C416.352 28.083 416.811 27.6603 417.116 27.2325C417.279 26.9983 417.422 26.82 417.544 26.6978L418.613 26.652C418.664 26.8862 418.69 27.0797 418.69 27.2325C418.69 27.3446 418.685 27.4821 418.674 27.645C418.664 28.0015 418.659 28.2969 418.659 28.5311C418.659 28.6432 418.664 29.0658 418.674 29.7992C419.092 29.0862 419.398 28.6075 419.591 28.3631C419.683 28.251 419.953 28.0015 420.401 27.6145C420.747 27.3598 421.139 27.2325 421.577 27.2325C422.117 27.2325 422.586 27.4158 422.983 27.7825C423.38 28.1492 423.579 28.5719 423.579 29.0506C423.579 29.5293 423.426 29.9621 423.12 30.3492C422.825 30.726 422.428 30.9145 421.929 30.9145C421.491 30.9145 421.032 30.7311 420.554 30.3645C420.268 30.1404 420.039 30.0283 419.866 30.0283L419.759 30.0436C419.545 30.1149 419.352 30.3084 419.179 30.6242C418.893 31.1334 418.751 31.6631 418.751 32.2131L418.781 32.6256C418.822 33.3793 418.853 35.1464 418.873 37.9269C418.904 38.1816 419 38.4362 419.163 38.6908C419.347 38.8334 419.53 38.9353 419.713 38.9964C419.907 39.0575 420.238 39.1084 420.706 39.1492C421.175 39.1899 421.46 39.2561 421.562 39.3478C421.664 39.4292 421.715 39.5667 421.715 39.7603C421.715 39.8723 421.684 40.02 421.623 40.2033H420.187L417.269 40.0505C416.536 40.0505 415.868 40.0811 415.267 40.1422H415.008C414.936 40.1422 414.407 40.1677 413.419 40.2186C413.388 40.0556 413.373 39.9334 413.373 39.8519C413.373 39.7705 413.388 39.6533 413.419 39.5005ZM426.206 22.0228C426.206 21.4728 426.385 21.0247 426.741 20.6784C427.098 20.3219 427.556 20.1436 428.116 20.1436C428.717 20.1436 429.216 20.3321 429.613 20.7089C430.011 21.0756 430.209 21.4932 430.209 21.9617C430.209 22.308 430.128 22.6543 429.965 23.0006C429.812 23.3469 429.562 23.627 429.216 23.8409C428.88 24.0446 428.534 24.1464 428.177 24.1464C427.688 24.1464 427.235 23.9376 426.817 23.52C426.41 23.1024 426.206 22.6034 426.206 22.0228ZM424.067 40.2492L424.037 39.2561L425.763 39.0269C426.018 38.9556 426.191 38.8538 426.283 38.7214C426.385 38.5788 426.436 38.2681 426.436 37.7894V37.6214C426.436 37.4992 426.441 37.2802 426.451 36.9644C426.471 36.6385 426.481 36.3533 426.481 36.1089C426.481 35.9154 426.466 35.5436 426.436 34.9936L426.451 34.2297L426.436 33.5117L426.466 31.0214C426.466 30.7057 426.436 30.3797 426.374 30.0436C426.262 29.8908 426.059 29.7584 425.763 29.6464C425.468 29.5344 424.954 29.4529 424.22 29.402V28.5464C425.269 28.4853 426.191 28.2663 426.986 27.8895C427.525 27.645 428.111 27.2121 428.742 26.5908H429.766C429.807 27.8538 429.827 29.4936 429.827 31.5103L429.72 37.7436C429.72 38.1714 429.741 38.5584 429.781 38.9047C430.097 39.0167 430.611 39.1288 431.324 39.2408C431.599 39.2816 431.818 39.3325 431.981 39.3936L431.966 40.2339C431.691 40.2441 431.487 40.2492 431.355 40.2492C431.202 40.2492 430.968 40.239 430.652 40.2186C429.613 40.1677 428.223 40.1422 426.481 40.1422C425.982 40.1422 425.498 40.1626 425.03 40.2033C424.561 40.2339 424.241 40.2492 424.067 40.2492ZM445.609 29.1117C446.261 29.7432 446.745 30.4714 447.06 31.2964C447.386 32.1112 447.549 32.8802 447.549 33.6033C447.549 34.9681 447.341 36.0681 446.923 36.9033C446.292 38.1663 445.441 39.0982 444.372 39.6992C443.302 40.3001 442.06 40.6005 440.644 40.6005C439.055 40.6005 437.705 40.2441 436.595 39.5311C435.495 38.8181 434.706 38.0084 434.227 37.1019C433.759 36.1955 433.524 35.07 433.524 33.7256C433.524 33.0432 433.636 32.3607 433.861 31.6783C434.085 30.9857 434.39 30.3848 434.777 29.8756C435.174 29.3663 435.607 28.9385 436.076 28.5922C436.758 28.1033 437.441 27.7571 438.123 27.5533C438.816 27.3395 439.651 27.2325 440.629 27.2325C442.757 27.2325 444.417 27.8589 445.609 29.1117ZM437.252 34.3978C437.344 35.6607 437.41 36.389 437.451 36.5825C437.583 37.2649 437.792 37.8505 438.077 38.3394C438.271 38.6552 438.592 38.9353 439.04 39.1797C439.488 39.4242 440.023 39.5464 440.644 39.5464C441.387 39.5464 442.014 39.3121 442.523 38.8436C443.032 38.3649 443.399 37.6214 443.623 36.6131C443.766 35.951 443.837 34.8663 443.837 33.3589C443.837 31.5052 443.531 30.1964 442.92 29.4325C442.309 28.6584 441.504 28.2714 440.506 28.2714C439.722 28.2714 439.07 28.4904 438.551 28.9283C438.042 29.3663 437.685 30.0131 437.481 30.8686C437.349 31.4186 437.273 32.595 437.252 34.3978Z" fill="black"/>
<path d="M325.26 306.142C326.747 306.142 328.004 305.628 329.034 304.599C330.12 303.513 330.691 302.226 330.749 300.74V252.716C330.749 251.344 330.206 250.201 329.119 249.286C328.033 248.314 326.747 247.828 325.26 247.828H324.231L324.145 246.97H349.272C351.044 246.97 352.96 246.799 355.018 246.456C357.133 246.113 358.62 245.77 359.477 245.427V256.232H358.62V254.688C358.62 253.316 358.134 252.144 357.162 251.172C356.247 250.201 355.132 249.686 353.817 249.629H336.323V276.128H350.816C351.959 276.07 352.931 275.642 353.731 274.841C354.532 274.041 354.932 273.04 354.932 271.84V270.639H355.79V284.189H354.932V282.902C354.932 281.759 354.532 280.787 353.731 279.987C352.988 279.186 352.045 278.757 350.901 278.7H336.323V304.342H348.586C352.817 304.342 356.047 303.398 358.277 301.512C360.506 299.625 362.364 296.824 363.851 293.107H364.708L359.734 307H324.145V306.142H325.26ZM373.917 306.142C375.404 306.142 376.661 305.628 377.69 304.599C378.777 303.513 379.348 302.226 379.406 300.74V253.231C379.348 251.744 378.777 250.486 377.69 249.457C376.661 248.371 375.404 247.828 373.917 247.828H372.802V246.97H391.583V247.828H390.468C388.41 247.828 386.838 248.714 385.752 250.486C385.237 251.344 384.98 252.259 384.98 253.231V304.342H397.243C401.474 304.342 404.704 303.398 406.933 301.512C409.163 299.625 411.021 296.824 412.508 293.107H413.365L408.391 307H372.802V306.142H373.917ZM426.743 254.431C432.86 248.657 440.778 245.77 450.497 245.77C460.273 245.77 468.22 248.657 474.337 254.431C480.455 260.148 483.513 267.666 483.513 276.985C483.513 286.304 480.455 293.851 474.337 299.625C468.22 305.342 460.273 308.201 450.497 308.201C440.778 308.201 432.86 305.342 426.743 299.625C420.625 293.851 417.567 286.304 417.567 276.985C417.567 267.666 420.625 260.148 426.743 254.431ZM431.373 297.738C436.233 302.998 442.608 305.628 450.497 305.628C458.387 305.628 464.733 302.998 469.535 297.738C474.395 292.479 476.824 285.561 476.824 276.985C476.824 268.41 474.395 261.492 469.535 256.232C464.733 250.972 458.387 248.342 450.497 248.342C442.608 248.342 436.233 250.972 431.373 256.232C426.571 261.492 424.17 268.41 424.17 276.985C424.17 285.561 426.571 292.479 431.373 297.738Z" fill="black"/>
<path d="M141.932 146.84C143.596 146.84 145.004 146.264 146.155 145.112C147.371 143.896 148.011 142.457 148.075 140.793V87.0394C148.075 85.5036 147.467 84.2238 146.251 83.1999C145.036 82.112 143.596 81.5681 141.932 81.5681H140.78L140.684 80.6082H168.809C170.792 80.6082 172.936 80.4162 175.24 80.0323C177.608 79.6483 179.271 79.2644 180.231 78.8804V90.9749H179.271V89.2471C179.271 87.7113 178.727 86.3995 177.64 85.3116C176.616 84.2238 175.368 83.6478 173.896 83.5838H154.314V113.244H170.536C171.816 113.18 172.904 112.7 173.8 111.804C174.696 110.908 175.144 109.789 175.144 108.445V107.101H176.104V122.267H175.144V120.827C175.144 119.547 174.696 118.46 173.8 117.564C172.968 116.668 171.912 116.188 170.632 116.124H154.314V144.824H168.041C172.776 144.824 176.392 143.768 178.887 141.657C181.383 139.545 183.463 136.409 185.127 132.25H186.086L180.519 147.8H140.684V146.84H141.932ZM265.003 81.5681C263.403 81.5681 262.027 82.144 260.876 83.2959C259.724 84.3837 259.116 85.7276 259.052 87.3274V136.857C259.052 140.569 259.276 144.088 259.724 147.416L259.916 149.144H259.052L206.738 93.2786V141.081C206.738 142.681 207.314 144.056 208.466 145.208C209.618 146.296 210.994 146.84 212.593 146.84H214.417V147.8H194.644V146.84H196.467C198.067 146.84 199.443 146.296 200.595 145.208C201.747 144.056 202.323 142.649 202.323 140.985V91.1669C202.323 87.2634 202.099 83.7758 201.651 80.7042L201.459 79.1684H202.419L254.732 135.033V87.4234C254.668 85.7596 254.06 84.3837 252.908 83.2959C251.757 82.144 250.381 81.5681 248.781 81.5681H246.957V80.6082H266.731V81.5681H265.003ZM338.354 146.84H339.122V147.8H317.525V146.84H318.389C319.733 146.84 320.725 146.424 321.365 145.592C322.068 144.696 322.42 143.864 322.42 143.097C322.42 142.329 322.292 141.561 322.036 140.793L315.893 124.475H289.976L283.545 140.889C283.289 141.657 283.161 142.425 283.161 143.192C283.161 143.896 283.481 144.696 284.121 145.592C284.825 146.424 285.849 146.84 287.193 146.84H288.057V147.8H268.763V146.84H269.627C271.227 146.84 272.795 146.328 274.33 145.304C275.866 144.28 277.114 142.777 278.074 140.793L299.767 89.1511C302.135 83.9678 303.319 80.6722 303.319 79.2644H304.183L329.908 140.793C330.803 142.777 332.019 144.28 333.555 145.304C335.091 146.328 336.691 146.84 338.354 146.84ZM291.128 121.595H314.741L303.223 90.7829L291.128 121.595ZM387.75 89.1511C387.75 87.6153 387.206 86.3035 386.118 85.2156C385.03 84.0638 383.751 83.4558 382.279 83.3919H364.041V140.889C364.105 142.553 364.713 143.96 365.865 145.112C367.081 146.264 368.521 146.84 370.184 146.84H371.432V147.8H350.411V146.84H351.659C353.322 146.84 354.73 146.264 355.882 145.112C357.098 143.96 357.738 142.585 357.802 140.985V83.3919H339.564C338.028 83.4558 336.716 84.0638 335.629 85.2156C334.605 86.3035 334.093 87.6153 334.093 89.1511V90.7829L333.133 90.8789V78.7844C334.093 79.1684 335.757 79.5523 338.124 79.9363C340.492 80.3202 342.668 80.5122 344.651 80.5122H377.095C380.231 80.5122 382.823 80.2882 384.87 79.8403C386.982 79.3284 388.262 78.9764 388.71 78.7844V90.8789L387.75 90.7829V89.1511ZM402.223 88.9592C409.07 82.496 417.933 79.2644 428.811 79.2644C439.754 79.2644 448.649 82.496 455.496 88.9592C462.343 95.3584 465.767 103.773 465.767 114.204C465.767 124.635 462.343 133.082 455.496 139.545C448.649 145.944 439.754 149.144 428.811 149.144C417.933 149.144 409.07 145.944 402.223 139.545C395.375 133.082 391.952 124.635 391.952 114.204C391.952 103.773 395.375 95.3584 402.223 88.9592ZM407.406 137.433C412.845 143.32 419.98 146.264 428.811 146.264C437.642 146.264 444.745 143.32 450.121 137.433C455.56 131.546 458.28 123.803 458.28 114.204C458.28 104.605 455.56 96.8622 450.121 90.9749C444.745 85.0876 437.642 82.144 428.811 82.144C419.98 82.144 412.845 85.0876 407.406 90.9749C402.031 96.8622 399.343 104.605 399.343 114.204C399.343 123.803 402.031 131.546 407.406 137.433Z" fill="black"/>
</svg>
