<svg width="42" height="23" viewBox="0 0 42 23" fill="none" xmlns="http://www.w3.org/2000/svg">
<path id="Vector" d="M40.475 19.3571H39.45C37.7818 19.3571 36.5159 18.9437 35.8567 18.4781C35.2866 18.075 34.5973 17.7857 33.8215 17.7857H32.7772C32.0015 17.7857 31.3121 18.075 30.742 18.4781C30.0841 18.9437 28.8182 19.3571 27.15 19.3571C25.4818 19.3571 24.2159 18.9437 23.5567 18.4781C22.9866 18.075 22.2973 17.7857 21.5215 17.7857H20.4772C19.7015 17.7857 19.0121 18.075 18.442 18.4781C17.7841 18.9437 16.5182 19.3571 14.85 19.3571C13.1818 19.3571 11.9159 18.9437 11.2567 18.4781C10.6866 18.075 9.99727 17.7857 9.22147 17.7857H8.17725C7.40145 17.7857 6.71214 18.075 6.14198 18.4781C5.48406 18.9437 4.21819 19.3571 2.55 19.3571H1.525C0.958687 19.3571 0.5 19.7087 0.5 20.1429V21.7143C0.5 22.1484 0.958687 22.5 1.525 22.5H2.55C5.02409 22.5 7.20862 21.9014 8.7 20.9364C10.1914 21.9019 12.3759 22.5 14.85 22.5C17.3241 22.5 19.5086 21.9014 21 20.9364C22.4914 21.9019 24.6759 22.5 27.15 22.5C29.6241 22.5 31.8086 21.9014 33.3 20.9364C34.7914 21.9019 36.9759 22.5 39.45 22.5H40.475C41.0413 22.5 41.5 22.1484 41.5 21.7143V20.1429C41.5 19.7087 41.0413 19.3571 40.475 19.3571ZM14.85 17.7857V13.0714H27.15V17.7857C28.3749 17.7857 29.127 17.4832 29.3531 17.3231C29.9406 16.9077 30.5831 16.6189 31.25 16.4358V5.21429C31.25 4.34804 32.1699 3.64286 33.3 3.64286C34.4301 3.64286 35.35 4.34804 35.35 5.21429V6C35.35 6.43411 35.8087 6.78571 36.375 6.78571H38.425C38.9913 6.78571 39.45 6.43411 39.45 6V5.21429C39.45 2.61455 36.6915 0.5 33.3 0.5C29.9085 0.5 27.15 2.61455 27.15 5.21429V9.92857H14.85V5.21429C14.85 4.34804 15.7699 3.64286 16.9 3.64286C18.0301 3.64286 18.95 4.34804 18.95 5.21429V6C18.95 6.43411 19.4087 6.78571 19.975 6.78571H22.025C22.5913 6.78571 23.05 6.43411 23.05 6V5.21429C23.05 2.61455 20.2915 0.5 16.9 0.5C13.5085 0.5 10.75 2.61455 10.75 5.21429V16.4353C11.4169 16.6184 12.0594 16.9077 12.6469 17.3226C12.873 17.4832 13.6251 17.7857 14.85 17.7857Z" fill="black"/>
</svg>
